<?xml version="1.0" encoding="utf-8"?>
<!-- Generator: Adobe Illustrator 28.2.0, SVG Export Plug-In . SVG Version: 6.00 Build 0)  -->
<svg version="1.1" id="Layer_1" xmlns="http://www.w3.org/2000/svg" xmlns:xlink="http://www.w3.org/1999/xlink" x="0px" y="0px"
	 viewBox="0 0 500 500" style="enable-background:new 0 0 500 500;" xml:space="preserve">
<g>
	<path d="M180.9,93.3c0.9,2.4,7.8-0.8,10.9-0.6c1.7,0.1,4.4,1.2,4.6,2.2c0.2,1.6-0.7,4.3-2,5.2c-6.6,4.5-13.6,7.7-21.8,3.2
		c-1.2-0.7-1.5-6.4-4.4-7.5c-2.9-1.1-8.6,13-12.8,9.5s4.9-25.5,5-28.2c-7.4,0.8-15.2,3-22.1,4c-4.2,0.6-7.9-0.7-12,0.2
		c-4.4,0.9-7,7.2-5.7,11.6c7.2-1.4,14.5-2.9,21.7-4.3c2.9-0.6,5,0.4,6,3.2c1.2,3.4-0.2,6.3-3.3,7.7c-4,1.8-8.2,3.6-12.5,4.4
		c-6.7,1.3-13.6,2.3-20.4,2.4c-6.6,0.1-9-3.6-7.2-10c2.2-7.6,5-15,7.4-22.6c1.1-3.6,2.3-7.3,2.5-11.1c0.7-9.8,3.5-13.6,13.2-16
		c6.3-1.6,13.9-2.9,20.3-3.7c2.9-0.4,6.5,0.6,8.9,2.3c1.6,1.1,2.4,4.7,2,6.8c-0.7,2.9-3.4,3-6.5,2.6c-3.2-0.4-6.6,0.3-9.8,1.1
		c-2.8,0.7-6.8,1.9-9.6,2.8c-3,0.9-2.6,2.8-4,5.8c-3.3,7.2-3.3,7.2,4.2,6.3c6.8-0.9,20.5-1.9,27.1,1.6c0.8,0.4,3-1.9,3.4-3
		c1.7-4.2,1.7-6.3,3-10.6c1-3.4,3.2-5.4,6.6-6.5c2-0.7,4-1.9,5.6-3.3c5.9-4.9,12.5-6.1,16.9-3c5.7,4.1,8.4,13.5,4.6,19.9
		c-4.4,7.4-10,14.1-15,21C184.4,88.4,180,90.9,180.9,93.3z M175,77.6c0.7,2.1,2,1.6,3.9,1.3c1.8-0.3,7.6-10.8,11.1-16.4
		c0.6-0.9,0.8-3.4-1.8-5.2s-7.6,5.9-9.4,9.5C177.7,69.1,174.4,75.6,175,77.6z"/>
	<path d="M192.4,417.7c1.9,0.5,21-20.3,24.3-22.7c1.5-1.1,4.8-0.5,6.9,0.4c3.2,1.3,4.6,4.2,4.4,7.9c-0.5,8.5-4.1,15.9-7.8,23.2
		c-2.6,5-3.7,10.1-3.2,15.7c0.5,4.6-1.3,7-5.3,7.6c-4.2,0.7-5.8-2.6-6.8-5.5c-1.3-3.5-1.6-7.3-2.1-11c-0.3-2.9,4.5-11.8,1.7-10.4
		c-1.2,0.6-8.4,8.9-9.3,9.7c-3.3,3-6.5,2.3-9.4-0.4c-3-2.8-5.9-10.3-7.3-6.8c-1,2.6-2.8,13.7-4.2,16.1c-1.7,2.9-1.4,6-3.9,8.1
		c-3.1,2.6-7.2,0.8-8.8-3.3c-2.5-6.2,0-11.7,2-17.4c2.7-7.4,5.5-14.9,7.6-22.5c1.1-3.9,2.5-6.8,6.7-7.7c3.8-0.7,9,1.3,11.3,4.5
		C190.2,405.1,190.5,417.1,192.4,417.7z"/>
	<path d="M51.5,428.1c-0.1-2.2-0.3-4.3-0.4-6.5c-0.6-9.7,1.9-18.8,5.7-27.6c1.7-3.8,5.8-4.9,9.3-3.1c3.4,1.7,3.5,4.9,2.9,8
		c-2.4,12.6-3.1,14.7,9.5,17.6c5,1.1,6.7-1.7,6.7-6.9c0-3.8-0.7-7.7,0-11.4c0.5-2.7,1.6-6.9,4.8-7.1c3.2-0.2,4.8,1.1,6,2.7
		c1.9,2.7,3.6,6.2,3.6,9.3c0.2,11.8-0.3,23.7-0.7,35.5c0,1.4-0.2,3.1-0.9,4.3c-0.9,1.6-2.4,4-3.7,4c-2.7,0.1-5.9-0.1-7.3-3.6
		c-1.3-3.2-2.8-6.4-4.3-9.6c-0.3-0.6-0.9-1.2-1.5-1.5c-3.4-1.2-6.7-2.5-10.2-3.3c-2.9-0.7-5.3,2.1-4.8,5.2c0.5,3.9,1,7.8,1.3,11.7
		c0.3,3.7-1.4,6.4-5.1,7.2c-3.9,0.9-7.4-0.3-8.4-4.4c-1.7-6.7-6.7-17.7-6.6-19.4S51,428.2,51.5,428.1z"/>
	<path d="M334.1,423.3c1.9-0.2,2.6-12.5,5-17.7c2.4-5.3,5.6-10.3,9.2-14.9c1.6-2.1,5.6-4.4,7.5-3.7c3.5,1.2,3,5.1,1.8,8.4
		c-1.6,4.4-3.2,8.8-4.4,13.4c-1.3,4.5-2.2,9.1-3.1,13.7c-1.9,9.3-3.2,16.3-10.1,21.2c-1,0.7-4.5,2-9.5-2c-4.9-4-9.5-15.1-13.2-13.7
		s-3,19.4-7.5,21.9c-1.8,1-3.1,2-6.2,1.4c-3.1-0.6-4.4-4.5-4.4-6.8c0.2-5.8,1.4-11.5,2.7-17.2c1.7-7.7,3.6-15.4,5.8-23
		c1.5-5.4,5.7-8.5,11-9.6c4.9-1,8.1,2.2,8.4,8.2C327.5,409.2,332.1,423.5,334.1,423.3z"/>
	<path d="M227,437.8c0.2-6.1,7.6-12.9,9.9-17.4c4.2-8,8.5-15.9,12.6-24c5-10,12.2-11.5,20.9-4.2c4.5,3.8,7.7,8.4,9.8,13.8
		c1,2.7,2.1,5.4,6.3,4.5c1.3-0.3,3.9,2.5,4.6,4.3c0.5,1.3-0.6,4.6-1.8,5.1c-5.7,2.3-5.7,6.7-6,11.8c-0.3,4.5-2.1,9.1-4,13.3
		c-1.4,3.1-4.8,3.8-8,2.7c-2.9-1-4.6-5.5-3.8-9c0.6-2.7,1.3-5.4,1.4-8.1c0.3-4-2.6-5.7-5.9-5.4c-10.4,1-16,1.7-19.7,11.3
		c-0.6,1.6-1.4,3.4-2.7,4.3c-2.8,2-4.7,7.2-7.5,4.8C230.9,443.8,226.8,443.9,227,437.8z"/>
	<path d="M431.2,40.4c8.8,0.9,13.9,6.1,18.6,12.9c7,10.2,2.5,23.9-4.2,32.3c-10,12.5-12.1,15.1-24.9,24.6
		c-1.5,1.1-11.4,5.4-13.2,5.8c-2.3,0.5-6.4,1.1-7,0.2c-1.5-2.8-2.5-6.7,1.1-9.1c3.4-2.3,11.8-3.9,14.7-6.6
		c8.7-7.9,11.6-10.6,19.5-19.2c5.9-6.4,7.1-15.3,3-21.2c-2.7-3.9-6.4-5.4-11-5c-4.3,0.4-7.2,2.5-8.4,6.7c-2.6,9.9-5.1,19.9-7.7,29.8
		c-0.5,1.8-0.7,4.1-1.9,5.2c-1.4,1.3-3.9,2.3-5.7,2c-1.5-0.3-3.3-2.4-3.7-4.1c-0.6-2-0.2-4.4,0.4-6.5c3.1-10.7,6.4-21.4,9.5-32.1
		c0.4-1.3-0.2-2.9-0.4-4.3c-0.7-5.1,1.4-8.9,6.4-10C421.2,41,426.3,40.9,431.2,40.4z"/>
	<path d="M362.6,51.7c4.1,3.3,4.6,7.1,2.7,11.6c-0.3,0.6,1.7,3.2,2.8,3.2c4.1,0.2,8.2-0.3,12.3-0.5c1.4-0.1,3.4-0.6,4.2,0.1
		c1.7,1.4,3.8,3.5,3.7,5.3c-0.1,1.6-2.5,4-4.3,4.5c-6.2,1.6-12.6,2.7-19,3.8c-3.2,0.6-7.1,4.7-6.7,7.9c0.1,0.8,2,2,3,2
		c4.9,0.1,9.7-0.2,14.6-0.2c1.7,0,3.5,0.1,5.2,0.6c3,0.8,5,2.8,4.3,6.2c-0.7,3.3-3,4.2-6.3,4.2c-8.3,0-16.7,0.3-25,0.2
		c-7.6-0.1-11-4.2-9-11.4c2.2-7.9,4.9-15.7,7.4-23.5c1.2-3.5,1.7-6.1-1-10c-2.3-3.4-2.2-9.3-1.4-13.8c0.7-4.2,5.3-4.3,9.2-4.2
		c10.7,0.4,21.5,0.4,32.2,1.2c2,0.1,3.8,3.1,5.7,4.8c-1.5,1.3-2.8,3.6-4.4,3.9c-5.6,0.9-11.4,1-17.1,1.5c-4.2,0.4-8.3,0.9-12.5,1.4
		C363,50.8,362.8,51.2,362.6,51.7z"/>
	<path d="M416.6,445.5c-6-1.1-10.8-3.6-14.8-7.9c-3.7-4-3.9-5.4-7.3-9.6c-5.4-6.8-6.4-14.2-0.8-21.3c6.5-8.2,13.1-16.3,24.2-18.7
		c7.7-1.7,15.7,4.8,14,11.7c-1.6,6.5-11.5,10.4-17.2,6.9c-0.9-0.6-2.2-1.3-3.1-1.1c-5.1,1-9.5,11.4-5.9,15.2
		c4.1,4.4,4.1,8.2,9.2,11.5c4.5,3,10.3-1.3,14.6-3.6c4.4-2.3,8.3-5.6,12.5-8.2c1.8-1.1,4-1.9,6-1.9c2.3,0,3.4,1.8,2.1,4
		c-5.3,9-20.4,18.5-22.4,19.3S420.6,444.8,416.6,445.5z"/>
	<path d="M145.9,407.5c2-1.7,3.9-3.6,6.3-4.7c4-2,6.8,1.3,6.9,6.1c0.1,3.9-0.9,7.2-4.1,10.2c-3.9,3.7-7.3,8.1-10.3,12.5
		c-3.8,5.6-8.1,10.4-14,13.6c-5.7,3.1-11.5,0.8-14.7-4.9c-4.5-8.3-5.1-16.6-3-25.8c1.2-5,4.2-8.2,7-11.7c2.1-2.6,5.1-4.5,8.9-2.8
		c2.8,1.3,5.4,3.2,5.1,5.4s-8.8,16.2-8.6,21.4s3.2,4.7,3.6,4.2C130.3,429.6,144.2,408.9,145.9,407.5z"/>
	<path d="M282.1,81.5c0.3-9.7,0.5-18.4,0.7-27.1c0.1-4.2,2-6.5,6.1-7.4c6.4-1.4,12.8-3.5,19.3-4.3c2.3-0.3,5.3,1.8,7.3,3.5
		c1.8,1.6,3.8,3.8,1.9,6.9c-1.8,2.8-4.1,3.6-7.4,3.5c-4.3-0.2-8.7,0-9.7,5.9c-0.2,1.1-2,1.9-3,2.9c-0.9,1-2.1,2.1-2.4,3.3
		c-1.8,7.2-0.2,8.8,7.2,7.8c2.2-0.3,4.2-1.2,6.4-1.6c3.5-0.6,6.4,0.5,7.3,4.1c1,3.8-1.8,5-4.9,5.8c-4.3,1.1-8.4,2.7-12.6,4
		c-3.6,1.1-4.8,3.3-4.1,7.1c0.9,4.6-4.5,10.3-9.1,9.8c-2.4-0.2-4.6-4.2-4.3-7.8C281.2,92.2,281.7,86.3,282.1,81.5z"/>
	<path d="M51.9,91.7c1.3-11.4,6.4-20.1,12.5-28c4.2-5.5,9.4-10.6,15.1-14.5c7.8-5.4,22.4,1.9,23.3,11.4c0.1,1.6-1.9,3.8-3.5,5
		c-0.9,0.7-3,0.3-4.4-0.2c-1-0.3-1.7-1.6-2.5-2.4c-3.7-4.1-9.1-1.2-13.6,2c-10,7.3-12.8,13.3-14.2,25.6c-0.9,8.1,4.9,12.8,12.6,10.9
		c4.3-1.1,9.5-2,13.8-3c1.6-0.4,4,1.8,4.2,2.6c0.5,1.8,0.4,5.1-0.8,6c-7.2,5.7-15.5,9.5-24.9,7.5c-8.4-1.8-14.4-7.2-16.9-15.7
		C52,96.3,52.1,93.4,51.9,91.7z"/>
	<path d="M229.1,58.7c-0.7-2.3-10.4-0.2-11.6,3.8c-1,3.6-3.8,3.2-6.5,2.6c-2.8-0.6-4.6-2.5-3.8-5.5c1.8-6.3,9.1-14,18.1-14.5
		c6.9-0.3,13.7-3.2,20.6-4.6c3.9-0.8,7.9-0.3,11.8-0.2c1.8,0,4.1,1.7,5.2,3.3c2,2.8-0.1,6-3.6,5.8c-8.8-0.4-15.8,3.2-24.2,6.7
		c7.3,6.9,2.9,14,1.8,20.8c-1.2,7.7-3.4,15.2-5,22.8c-0.8,3.8-2.9,5.8-6.8,5.4c-4-0.4-5.6-3.3-5.5-6.8c0-2.4,1.2-4.8,1.7-7.2
		c1.7-7.9,3.3-15.8,5.1-23.7C227.1,64.7,229.8,61,229.1,58.7z"/>
	<path d="M335.5,91.9c1.1,1-1,8.8-1.9,11.5c-0.8,2.3-4.3,3-6.3,3.4c-3.1,0.6-7.5-1.2-7.7-4.2c-0.4-4.7-0.3-7.6-0.1-12.3
		c0.5-9.9,4.5-22.6,8.7-31.7c2.4-5.3,6.4-6.8,10.4-3.3c1.2,1.1,2.1,3.3,2,4.9c-0.2,3-1.1,6.1-2,9c-2.1,7.6-7.4,22.3-6.4,22.9
		C333.2,92.6,334.4,91,335.5,91.9z"/>
	<path d="M384.1,406.4c-0.3,1.1-3.1,10-3.7,11.6c-2,5.7-3.9,11-2.3,17.5c1.5,6.2-1.2,9.7-5.9,10.3c-5.3,0.7-9.3-2.9-9.4-8.3
		c-0.2-11,5.6-28.2,10.3-37.8c0.8-1.6,4.5-3.3,5.6-2.7c2.3,1.2,3.9,4,5.5,6.2C384.6,403.7,384.2,404.9,384.1,406.4z"/>
	<path d="M249.6,96.1c1.3-5.2,6.2-27.3,7.6-33c0.1-0.6,0.5-1.1,0.8-1.5c2.8-4.3,6.2-6,8.9-4.6c3.3,1.8,3.8,5.1,2.2,10.2
		c-1.6,5.3-4.6,25.7-5.6,31.2c-0.8,4.4-2.8,8-5.6,7.8c-4.2-0.3-7.1-2.1-7.8-5.6C250,99.2,249.9,97.9,249.6,96.1z"/>
	<path d="M244,135.6c-2-0.6-4.1-1.6-6.1-1.7c-16.6-0.5-33.2-1.8-49.7,0.9c-3.9,0.6-7.7,1.9-11.4,3.4c-6.6,2.7-13,5.8-19.4,8.7
		c-3.4,1.6-6.7,3.6-10.3,4.8c-1.5,0.5-3.9,0.9-5.2-0.9c-1.3-1.8,0.8-3.6,1.9-4.5c9.8-8.2,20.9-14.1,33.1-17.7c17-5,34.5-5.6,52-3.9
		c15.5,1.5,31,3.7,46.5,5.3c4.5,0.5,9.1,0.4,13.6-0.3c11.5-1.7,22.8-4.8,34.5-3.1c8.8,1.3,16.1,5.2,21,12.9c0.2,0.2,0.4,0.5,0.4,0.8
		c0.2,9.8,8.6,10.8,14.9,12.8c19.4,6.2,36.5,16.4,51,30.3c7.6,7.3,12.9,16.9,19.2,25.6c5.9,8.1,7.9,17.5,8.9,27.2
		c0.6,5.8-1.9,10.4-5.3,14.5c-10.3,12.3-21.4,23.7-34.6,32.8c-7.7,5.3-14.8,11.6-22.7,16.6c-10.6,6.8-21.6,13-32.5,19.3
		c-13,7.4-26,14.7-39.1,21.9c-2.8,1.5-5.9,2.6-8.9,3.8c-10.6,4.6-21.1,9.6-31.9,13.7c-9.3,3.5-18.8,6.3-28.4,8.8
		c-10.2,2.6-20.5,5.2-30.9,6.6c-12.7,1.8-25.6,2.7-38.4,3.3c-9.9,0.5-20,0.7-29.8-0.5c-9.1-1-18.1-3.6-26.9-6.2
		c-8.9-2.6-17.1-7-24.2-13.1c-10-8.6-17.6-19-23.9-30.7c-7.9-14.6-11.2-29.8-10.3-46.2c0.5-8.7,4.6-16,8.8-23.3
		c10.2-17.6,23-33.1,38.2-46.5c13.3-11.8,27.6-22.4,43.1-31.4c18-10.4,36.6-19.4,56-26.6c12-4.5,24.4-7.6,36.6-11.5
		c3.5-1.1,6.9-2.8,10.4-4.2C244.1,136.9,244.1,136.2,244,135.6z M331.7,158.9c-2.9,4.5-7.1-10.2-14.2-10.4c-2-0.1-4.1-0.2-6-0.9
		c-12.8-4.8-25.5-9.3-39.5-5.7c-10.1,2.6-20.4,4.4-30.5,7.1c-10,2.7-19.9,6.1-29.8,9.4c-6.8,2.3-13.7,4.4-20.3,7.3
		c-9.3,4.1-18.1,8.9-27.3,13.1c-8.4,3.9-16.6,8-23.1,14.9c-0.6,0.7-1.8,0.8-2.8,1.3c-2.1,0.9-4.5,1.5-6.2,2.9
		c-3.6,2.8-6.6,6.2-10.2,9c-4,3.1-8.6,5.5-12.3,8.9c-5.4,5-10.4,10.4-15.2,15.9c-6.4,7.3-13.3,14.4-18.6,22.5
		c-4.5,6.9-7.7,14.8-10.3,22.6c-1.8,5.3-3.1,11.6-1.9,16.8c3.3,14.1,6.6,28.5,16.8,39.7c5.6,6.2,11.5,12.1,17.7,17.6
		c7,6.3,16.1,8.5,24.8,10.7c8.2,2.1,16.7,2.9,25.2,3.4c6.5,0.4,13.2-1.3,19.7-1c24.5,0.8,47.7-5.6,71.1-11.4c4.1-1,8.1-2.3,12-3.8
		c6.8-2.6,13.4-5.4,20.1-8.3c2.5-1.1,4.7-3,7.2-4c9.5-4,19.4-7.4,28.7-11.9c11.8-5.8,23.3-12.3,34.8-18.8c4.7-2.6,9.1-5.9,13.6-8.9
		c10.4-6.8,21.1-13.2,31.1-20.5c8.9-6.5,17.1-14.1,25.5-21.4c1.9-1.6,3-4.2,5.1-5.4c5.8-3.2,6.5-8.6,6.3-14.1
		c-0.6-13.5-6.5-25.2-13.9-36.1c-8.2-12-20.3-19.8-32.2-27.5c-7.8-5.1-16.5-8.8-25.1-12.6C344.5,156.1,334.5,154.4,331.7,158.9z"/>
	<path d="M190.2,205.8c2.4,0.1,7.8,8.6,7.2,13.9c-0.8,7-2.2,14-3.2,21c-1,7.5,1.1,9.8,8.6,9.5c11.3-0.5,17.8,1.1,29,0.5
		c11.4-0.6,18.1-0.9,29.5-1.7c4.1-0.3,8.1-1.3,12.1-1.9c3.5-0.5,3.9-3.3,4.4-5.8c1.3-6.5,2-13.1,3.6-19.5
		c2.5-10.7,6.5-20.7,13.1-29.6c1.7-2.3,3-5.1,4.4-7.7c2.1-3.9,9.9-4.9,14-2.5c3.4,2,3.9,5,1.4,8.6c-9.7,13.6-15.9,28.6-18,45.4
		c-1.7,13.6-3.9,27-5.4,40.6c-0.9,8-1,16.1-1.1,24.2c0,3.7-1.4,6.2-4.7,7c-3.6,0.8-10.3-1.7-11.1-4.6c-0.8-2.8-1-5.8-0.9-8.7
		c0.2-9.8,0.6-19.7,0.8-29.5c0.1-3.3-1.8-4.9-5.1-4.6c-12,1-19.2,2-31.2,2.7c-10.3,0.7-15.7-1.3-26-0.7c-6.1,0.4-12.3,1-18.4,1.9
		c-3.1,0.4-5.3,2.2-5.8,5.7c-1.2,8.1-2.7,16.3-3.7,24.4c-0.2,1.7,0.6,3.7,1.3,5.4c2,4.9,0.4,11-3.8,13.2c-5.2,2.7-14.3,3.1-14.8-2.7
		c-0.5-5.6-0.1-11.5,0.7-17.1c1-7.3,2.6-14.5,4.1-21.7c0.7-3.4-0.2-5.5-3.8-5.9c-2.8-0.3-4.8-1.4-5-4.5c-0.2-3.3,1-6.2,4.2-6.9
		c8.8-1.9,10.7-8.4,11.9-16c1.2-7.7,2.9-15.3,4.6-22.9C184.2,209.8,187.8,205.6,190.2,205.8z"/>
</g>
</svg>
