<?xml version="1.0" encoding="utf-8"?>
<!-- Generator: Adobe Illustrator 28.2.0, SVG Export Plug-In . SVG Version: 6.00 Build 0)  -->
<svg version="1.1" xmlns="http://www.w3.org/2000/svg" xmlns:xlink="http://www.w3.org/1999/xlink" x="0px" y="0px"
	 viewBox="0 0 500 500" style="enable-background:new 0 0 500 500;" xml:space="preserve">
<style type="text/css">
	.st0{fill:none;stroke:#00C3FF;}
	.st1{fill:none;stroke:#FF00FF;}
	.st2{fill:none;stroke:#00FF00;}
</style>
<g id="Layer_3">
	<g id="Layer_3_00000117634367898871895750000004551925367093687968_">
		<line class="st0" x1="0" y1="0" x2="152.1" y2="354.9"/>
		<line class="st0" x1="314.1" y1="77.9" x2="372.1" y2="392.9"/>
		<line class="st0" x1="105.1" y1="421.9" x2="375.1" y2="313.9"/>
		<line class="st0" x1="300.1" y1="228.9" x2="338.1" y2="494.9"/>
		<line class="st0" x1="492.1" y1="333.9" x2="458.1" y2="131.3"/>
		<line class="st0" x1="6.2" y1="466.9" x2="393.1" y2="480.9"/>
		<line class="st0" x1="89.1" y1="241.9" x2="499.1" y2="238.9"/>
		<line class="st0" x1="400.1" y1="64.9" x2="211.1" y2="298.9"/>
		<line class="st0" x1="282.1" y1="462.9" x2="85.1" y2="189.9"/>
		<line class="st0" x1="484.1" y1="445.9" x2="376.1" y2="189.9"/>
		<line class="st0" x1="114.1" y1="152.9" x2="140.1" y2="68.9"/>
		<line class="st0" x1="405.1" y1="206.9" x2="398.1" y2="11.9"/>
		<line class="st0" x1="69.1" y1="179.9" x2="77.1" y2="166.9"/>
		<line class="st0" x1="227.1" y1="293.9" x2="162.1" y2="49.9"/>
		<line class="st0" x1="335.1" y1="435.9" x2="62.1" y2="356.9"/>
		<line class="st0" x1="340.1" y1="393.9" x2="124.1" y2="16.9"/>
		<line class="st0" x1="102.1" y1="268.9" x2="195.1" y2="148.9"/>
		<line class="st0" x1="448.1" y1="136.9" x2="487.1" y2="161.9"/>
		<line class="st0" x1="351.1" y1="113.9" x2="280.1" y2="348.9"/>
		<line class="st0" x1="441.1" y1="478.9" x2="461.1" y2="363.9"/>
		<line class="st0" x1="140.1" y1="463.9" x2="357.1" y2="169.9"/>
		<line class="st0" x1="10.1" y1="318.9" x2="51.1" y2="421.9"/>
		<line class="st0" x1="11.1" y1="412.9" x2="497.1" y2="73.9"/>
		<line class="st0" x1="187.1" y1="428.9" x2="366.1" y2="317.9"/>
		<line class="st0" x1="473.1" y1="443.9" x2="443.1" y2="288.9"/>
		<line class="st0" x1="26.1" y1="234.9" x2="366.1" y2="283.9"/>
		<line class="st0" x1="427.1" y1="328.9" x2="496.1" y2="169.9"/>
		<line class="st0" x1="263.1" y1="165.9" x2="121.1" y2="478.9"/>
		<line class="st0" x1="402.1" y1="268.9" x2="389.1" y2="116.9"/>
		<line class="st0" x1="242.1" y1="290.9" x2="273.1" y2="68.9"/>
		<line class="st0" x1="201.1" y1="75.9" x2="49.1" y2="118.9"/>
		<line class="st0" x1="220.1" y1="389.9" x2="421.1" y2="112.9"/>
		<line class="st0" x1="266.1" y1="234.9" x2="345.1" y2="414.9"/>
		<line class="st0" x1="324.1" y1="324.9" x2="466.1" y2="175.9"/>
		<line class="st0" x1="344.1" y1="2.9" x2="9.1" y2="368.9"/>
		<line class="st0" x1="156.1" y1="442.9" x2="126.1" y2="89.9"/>
		<line class="st0" x1="284.1" y1="448.9" x2="389.1" y2="170.9"/>
		<line class="st0" x1="224.1" y1="494.9" x2="374.1" y2="485.9"/>
		<line class="st0" x1="126.1" y1="492.9" x2="66.1" y2="196.9"/>
		<line class="st0" x1="80.1" y1="295.9" x2="347.1" y2="260.9"/>
		<line class="st0" x1="169.1" y1="240.9" x2="309.1" y2="254.9"/>
		<line class="st0" x1="454.1" y1="255.9" x2="299.1" y2="467.9"/>
		<line class="st0" x1="381.1" y1="39.9" x2="250.1" y2="457.9"/>
		<line class="st0" x1="286.1" y1="457.9" x2="438.1" y2="102.9"/>
		<line class="st0" x1="427.1" y1="46.9" x2="392.1" y2="79.9"/>
		<line class="st0" x1="499.1" y1="363.9" x2="257.1" y2="300.9"/>
		<line class="st0" x1="47.1" y1="137.9" x2="447.1" y2="332.9"/>
		<line class="st0" x1="365.1" y1="125.9" x2="436.1" y2="418.9"/>
		<line class="st0" x1="159.1" y1="72.9" x2="182.1" y2="115.9"/>
		<line class="st0" x1="467.1" y1="288.9" x2="485.1" y2="163.9"/>
		<line class="st1" x1="163.1" y1="276.9" x2="136.1" y2="172.9"/>
		<line class="st1" x1="172.1" y1="340.9" x2="196.1" y2="16.9"/>
		<line class="st1" x1="123.1" y1="235.9" x2="175.1" y2="178.9"/>
		<line class="st1" x1="480.1" y1="457.9" x2="474.1" y2="295.9"/>
		<line class="st1" x1="155.1" y1="307.9" x2="300.1" y2="263.9"/>
		<line class="st1" x1="451.1" y1="278.9" x2="194.1" y2="97.9"/>
		<line class="st1" x1="237.2" y1="2.9" x2="414.1" y2="106.9"/>
		<line class="st1" x1="390.1" y1="336.9" x2="130.1" y2="94.9"/>
		<line class="st1" x1="336.1" y1="52.9" x2="403.1" y2="80.9"/>
		<line class="st1" x1="137.1" y1="402.9" x2="253.1" y2="180.9"/>
		<line class="st1" x1="500.1" y1="500" x2="356.1" y2="150.9"/>
		<line class="st1" x1="166.1" y1="490.9" x2="406.1" y2="140.9"/>
		<line class="st1" x1="201.1" y1="171.9" x2="65.1" y2="431.9"/>
		<line class="st1" x1="191.1" y1="324.9" x2="107.1" y2="158.9"/>
		<line class="st1" x1="212.1" y1="174.9" x2="418.1" y2="309.9"/>
		<line class="st1" x1="67.1" y1="328.9" x2="465.1" y2="82.9"/>
		<line class="st1" x1="235.1" y1="27.9" x2="5.1" y2="290.9"/>
		<line class="st1" x1="179.1" y1="299.9" x2="236.1" y2="458.9"/>
		<line class="st1" x1="184.1" y1="385.9" x2="405.1" y2="405.9"/>
		<line class="st1" x1="282.1" y1="472.9" x2="428.1" y2="417.9"/>
		<line class="st1" x1="161.1" y1="433.9" x2="432.1" y2="453.9"/>
		<line class="st1" x1="364.1" y1="267.9" x2="450.1" y2="86.9"/>
		<line class="st1" x1="260.1" y1="285.9" x2="135.1" y2="205.9"/>
		<line class="st1" x1="410.1" y1="102.9" x2="488.1" y2="430.9"/>
		<line class="st1" x1="37.1" y1="157.9" x2="208.1" y2="461.9"/>
		<line class="st1" x1="8.1" y1="234.9" x2="317.1" y2="66.9"/>
		<line class="st1" x1="89.1" y1="6.9" x2="200.1" y2="371.9"/>
		<line class="st1" x1="51.1" y1="26.9" x2="90.1" y2="203.9"/>
		<line class="st1" x1="318.1" y1="300.9" x2="271.1" y2="235.9"/>
		<line class="st1" x1="227.1" y1="81.9" x2="318.1" y2="203.9"/>
		<line class="st1" x1="403.1" y1="457.9" x2="153.1" y2="332.9"/>
		<line class="st1" x1="346.1" y1="396.9" x2="401.1" y2="1.9"/>
		<line class="st1" x1="290.1" y1="431.9" x2="153.1" y2="82.9"/>
		<line class="st1" x1="262.1" y1="214.9" x2="229.1" y2="397.9"/>
		<line class="st1" x1="345.1" y1="258.9" x2="320.1" y2="438.9"/>
		<line class="st1" x1="264.1" y1="478.9" x2="343.1" y2="244.9"/>
		<line class="st1" x1="50.1" y1="94.9" x2="149.1" y2="341.9"/>
		<line class="st1" x1="83.1" y1="395.9" x2="73.1" y2="103.9"/>
		<line class="st1" x1="437.1" y1="340.9" x2="260.1" y2="134.9"/>
		<line class="st1" x1="274.1" y1="439.9" x2="82.1" y2="446.9"/>
		<line class="st1" x1="372.1" y1="490.9" x2="23.1" y2="5.9"/>
		<line class="st1" x1="269.1" y1="238.9" x2="365.1" y2="455.9"/>
		<line class="st1" x1="60.1" y1="447.9" x2="451.1" y2="48.9"/>
		<line class="st1" x1="475.1" y1="219.9" x2="283.1" y2="324.9"/>
		<line class="st1" x1="54.1" y1="434.9" x2="295.1" y2="105.9"/>
		<line class="st1" x1="268.1" y1="38.9" x2="28.1" y2="308.9"/>
		<line class="st1" x1="379.1" y1="113.9" x2="218.1" y2="243.9"/>
		<line class="st1" x1="316.1" y1="240.9" x2="297.1" y2="308.9"/>
		<line class="st1" x1="246.1" y1="289.9" x2="496.1" y2="336.9"/>
		<line class="st1" x1="387.1" y1="93.9" x2="255.1" y2="377.9"/>
		<line class="st2" x1="467.1" y1="98.9" x2="186.1" y2="376.9"/>
		<line class="st2" x1="257.1" y1="153.9" x2="300.1" y2="211.9"/>
		<line class="st2" x1="252.1" y1="244.9" x2="338.1" y2="217.9"/>
		<line class="st2" x1="101.1" y1="167.9" x2="377.1" y2="233.9"/>
		<line class="st2" x1="335.1" y1="286.9" x2="144.1" y2="57.9"/>
		<line class="st2" x1="500.1" y1="0.9" x2="224.1" y2="491.9"/>
		<line class="st2" x1="460.1" y1="107.9" x2="419.1" y2="180.9"/>
		<line class="st2" x1="314.1" y1="248.9" x2="464.1" y2="165.9"/>
		<line class="st2" x1="452.1" y1="461.9" x2="103.1" y2="355.9"/>
		<line class="st2" x1="117.1" y1="316.9" x2="427.1" y2="227.9"/>
		<line class="st2" x1="335.1" y1="435.9" x2="59.1" y2="443.9"/>
		<line class="st2" x1="197.1" y1="150.9" x2="197.1" y2="25.9"/>
		<line class="st2" x1="429.1" y1="276.9" x2="223.1" y2="471.9"/>
		<line class="st2" x1="131.1" y1="201.9" x2="80.1" y2="23.9"/>
		<line class="st2" x1="498.1" y1="83.9" x2="9.1" y2="320.9"/>
		<line class="st2" x1="300.1" y1="167.9" x2="112.1" y2="319.9"/>
		<line class="st2" x1="133.1" y1="437.9" x2="435.1" y2="213.9"/>
		<line class="st2" x1="75.1" y1="164.9" x2="398.1" y2="260.9"/>
		<line class="st2" x1="143.1" y1="408.9" x2="482.1" y2="234.9"/>
		<line class="st2" x1="479.1" y1="273.9" x2="323.1" y2="244.9"/>
		<line class="st2" x1="153.1" y1="407.9" x2="331.1" y2="336.9"/>
		<line class="st2" x1="130.1" y1="371.9" x2="371.1" y2="243.9"/>
		<line class="st2" x1="305.1" y1="430.9" x2="424.1" y2="170.9"/>
		<line class="st2" x1="295.1" y1="446.9" x2="162.1" y2="79.9"/>
		<line class="st2" x1="497.1" y1="184.9" x2="493.1" y2="66.9"/>
		<line class="st2" x1="67.1" y1="450.9" x2="242.1" y2="312.9"/>
		<line class="st2" x1="93.1" y1="278.9" x2="166.1" y2="344.9"/>
		<line class="st2" x1="8.1" y1="105.9" x2="252.1" y2="94.9"/>
		<line class="st2" x1="311.1" y1="73.9" x2="277.1" y2="381.9"/>
		<line class="st2" x1="45.1" y1="140.9" x2="185.1" y2="39.9"/>
		<line class="st2" x1="0" y1="500" x2="166.1" y2="445.9"/>
		<line class="st2" x1="9.1" y1="111.9" x2="24.1" y2="432.9"/>
		<line class="st2" x1="25.1" y1="440.9" x2="116.1" y2="166.9"/>
		<line class="st2" x1="415.1" y1="304.9" x2="115.1" y2="489.9"/>
		<line class="st2" x1="397.1" y1="222.9" x2="367.1" y2="315.9"/>
		<line class="st2" x1="370.1" y1="313.9" x2="258.1" y2="315.9"/>
		<line class="st2" x1="326.1" y1="86.9" x2="351.1" y2="166.9"/>
		<line class="st2" x1="231.1" y1="98.9" x2="305.1" y2="155.9"/>
		<line class="st2" x1="375.1" y1="12.9" x2="120.1" y2="84.9"/>
		<line class="st2" x1="243.1" y1="127.9" x2="349.1" y2="99.9"/>
		<line class="st2" x1="152.1" y1="54.9" x2="50.1" y2="55.9"/>
		<line class="st2" x1="413.1" y1="329.9" x2="216.1" y2="324.9"/>
		<line class="st2" x1="31.1" y1="110.9" x2="197.1" y2="285.9"/>
		<line class="st2" x1="313.1" y1="304.9" x2="67.1" y2="99.9"/>
		<line class="st2" x1="185.1" y1="368.9" x2="18.1" y2="121.9"/>
		<line class="st2" x1="317.1" y1="331.9" x2="359.1" y2="495.9"/>
		<line class="st2" x1="367.1" y1="178.9" x2="334.1" y2="110.9"/>
		<line class="st2" x1="58.1" y1="446.9" x2="80.1" y2="408.9"/>
		<line class="st2" x1="217.1" y1="236.9" x2="113.1" y2="293.9"/>
		<line class="st2" x1="194.1" y1="101.9" x2="202.1" y2="340.9"/>
	</g>
</g>
<g id="Layer_2">
	<g>
		<path d="M69.9,299.2v-6.1c0-2,0.3-3.9,0.9-5.6c0.6-1.7,1.4-3.2,2.5-4.4c1.1-1.2,2.4-2.1,3.9-2.8c1.5-0.7,3.2-1,5-1
			c2.7,0,4.9,0.6,6.5,1.9c1.7,1.3,2.6,3,2.8,5.1H92V280h9.3v32.7c0,2.3-0.4,4.2-1.2,5.9c-0.8,1.7-2,3.1-3.5,4.2
			c-1.5,1.1-3.3,1.9-5.3,2.5c-2.1,0.5-4.3,0.8-6.8,0.8c-2.4,0-4.5-0.2-6.3-0.6c-1.8-0.4-3.1-0.8-3.9-1.2v-7.8c0.4,0.2,1,0.4,1.7,0.5
			c0.7,0.2,1.5,0.4,2.4,0.6c0.9,0.2,1.8,0.4,2.8,0.5c1,0.1,2,0.2,2.9,0.2c2.4,0,4.3-0.4,5.6-1.3c1.3-0.9,2-2.3,2-4.4v-0.9l0.3-5.8
			h-0.4c-0.3,2.1-1.2,3.8-2.9,5.1c-1.7,1.3-3.8,1.9-6.5,1.9c-1.8,0-3.5-0.3-5-1c-1.5-0.7-2.8-1.6-3.8-2.8c-1.1-1.2-1.9-2.6-2.5-4.4
			C70.2,303.1,69.9,301.2,69.9,299.2z M85.6,304.6c1.8,0,3.3-0.5,4.4-1.6c1.1-1,1.7-2.4,1.7-4.2v-5.4c0-1.7-0.6-3.1-1.7-4.2
			c-1.1-1-2.6-1.6-4.4-1.6c-1.8,0-3.3,0.5-4.4,1.5c-1.1,1-1.6,2.4-1.6,4.2v5.4c0,1.8,0.5,3.2,1.6,4.2
			C82.3,304.1,83.7,304.6,85.6,304.6z"/>
		<path d="M107.9,301.8v-8.4c0-2.1,0.4-4.1,1.2-5.8c0.8-1.7,1.9-3.2,3.3-4.4c1.4-1.2,3.1-2.2,5.1-2.8c2-0.7,4.2-1,6.6-1
			c2.4,0,4.6,0.3,6.5,1c2,0.7,3.6,1.6,5.1,2.9c1.4,1.2,2.5,2.7,3.3,4.4c0.8,1.7,1.2,3.6,1.2,5.7v6.4h-23v1.9c0,2.1,0.6,3.7,1.9,4.9
			c1.2,1.2,2.9,1.8,5.1,1.8c1.6,0,2.9-0.3,4-0.8c1.1-0.5,1.9-1.2,2.2-2.1h9.4c-0.4,1.5-1.1,2.9-2,4.2c-1,1.3-2.1,2.3-3.5,3.2
			c-1.4,0.9-2.9,1.6-4.6,2.1c-1.7,0.5-3.6,0.7-5.5,0.7c-2.4,0-4.6-0.3-6.6-1c-2-0.7-3.7-1.6-5.1-2.8c-1.4-1.2-2.5-2.7-3.3-4.4
			C108.2,305.8,107.9,303.8,107.9,301.8z M117,294.1h13.8v-0.6c0-2.1-0.6-3.7-1.8-4.9c-1.2-1.2-2.9-1.8-5.1-1.8
			c-2.2,0-3.9,0.6-5.1,1.8c-1.2,1.2-1.9,2.8-1.9,4.9V294.1z"/>
		<path d="M146.4,280h9.1v6.1h0.6c0.3-2.2,1.2-3.8,2.8-5c1.6-1.2,3.6-1.7,6.2-1.7c3.6,0,6.5,1.2,8.5,3.5c2,2.3,3.1,5.5,3.1,9.6v22.7
			h-9.6v-21.8c0-1.8-0.5-3.2-1.5-4.2c-1-1-2.4-1.5-4.1-1.5c-1.7,0-3.1,0.5-4.1,1.5c-1,1-1.5,2.4-1.5,4.2v21.8h-9.6V280z"/>
		<path d="M183.3,301.8v-8.4c0-2.1,0.4-4.1,1.2-5.8c0.8-1.7,1.9-3.2,3.3-4.4c1.4-1.2,3.1-2.2,5.1-2.8c2-0.7,4.2-1,6.6-1
			c2.4,0,4.6,0.3,6.5,1c2,0.7,3.6,1.6,5.1,2.9c1.4,1.2,2.5,2.7,3.3,4.4c0.8,1.7,1.2,3.6,1.2,5.7v6.4h-23v1.9c0,2.1,0.6,3.7,1.9,4.9
			c1.2,1.2,2.9,1.8,5.1,1.8c1.6,0,2.9-0.3,4-0.8c1.1-0.5,1.9-1.2,2.2-2.1h9.4c-0.4,1.5-1.1,2.9-2,4.2c-1,1.3-2.1,2.3-3.5,3.2
			c-1.4,0.9-2.9,1.6-4.6,2.1c-1.7,0.5-3.6,0.7-5.5,0.7c-2.4,0-4.6-0.3-6.6-1c-2-0.7-3.7-1.6-5.1-2.8c-1.4-1.2-2.5-2.7-3.3-4.4
			C183.7,305.8,183.3,303.8,183.3,301.8z M192.5,294.1h13.8v-0.6c0-2.1-0.6-3.7-1.8-4.9c-1.2-1.2-2.9-1.8-5.1-1.8
			c-2.2,0-3.9,0.6-5.1,1.8c-1.2,1.2-1.9,2.8-1.9,4.9V294.1z"/>
		<path d="M222.8,315.2V280h9.1v10.3h0.8c0.2-1.5,0.7-3,1.4-4.3c0.7-1.3,1.6-2.5,2.7-3.5c1.1-1,2.4-1.8,3.8-2.3
			c1.4-0.6,3-0.9,4.7-0.9c0.8,0,1.5,0.1,2.3,0.2c0.7,0.1,1.4,0.2,2,0.4c0.6,0.2,1.1,0.3,1.5,0.5c0.4,0.2,0.7,0.3,0.9,0.4l0.5,0.3
			v9.5l-0.5-0.3c-0.2-0.1-0.5-0.2-0.9-0.4c-0.4-0.2-1-0.4-1.6-0.6c-0.6-0.2-1.4-0.4-2.2-0.5c-0.8-0.1-1.7-0.2-2.6-0.2
			c-1.7,0-3.2,0.3-4.7,0.9c-1.5,0.6-2.8,1.5-3.9,2.6c-1.1,1.1-2,2.5-2.7,4.1c-0.7,1.6-1,3.5-1,5.5v13.6H222.8z"/>
		<path d="M256.5,305.6c0-3.3,1.1-5.9,3.2-7.7c2.2-1.8,5.3-3.1,9.5-3.8l8.4-1.3v-1.9c0-1.2-0.5-2.2-1.5-3c-1-0.8-2.3-1.2-3.8-1.2
			c-3.2,0-5.1,1.1-5.7,3.2h-9.3c0.3-1.7,0.8-3.3,1.6-4.6c0.8-1.3,1.9-2.4,3.2-3.3c1.3-0.9,2.8-1.5,4.5-2c1.7-0.4,3.6-0.7,5.6-0.7
			c2.2,0,4.2,0.3,6.1,0.8c1.8,0.6,3.4,1.3,4.7,2.3c1.3,1,2.3,2.2,3,3.6c0.7,1.4,1.1,3,1.1,4.7v24.3h-9.2v-6.4h-0.5
			c-0.5,2.2-1.6,3.9-3.5,5.2c-1.8,1.3-4.2,1.9-7,1.9c-1.5,0-2.9-0.2-4.2-0.7c-1.3-0.5-2.4-1.2-3.4-2c-1-0.9-1.7-2-2.2-3.2
			C256.8,308.6,256.5,307.2,256.5,305.6z M266.1,304.3c0,1.3,0.4,2.3,1.3,3.1c0.9,0.7,2.1,1.1,3.7,1.1c1.8,0,3.4-0.5,4.6-1.4
			c1.2-1,1.9-2.2,1.9-3.7v-4.2l-7.1,1c-1.2,0.2-2.3,0.6-3.1,1.2C266.5,302,266.1,302.9,266.1,304.3z"/>
		<path d="M302.2,280v-10.9h9.6V280h11v8.6h-11V303c0,1.2,0.4,2.1,1.1,2.7c0.7,0.6,1.7,0.8,2.8,0.8c1,0,1.9-0.1,2.7-0.4
			c0.8-0.2,1.6-0.5,2.3-0.8v8.5c-0.7,0.3-1.6,0.6-2.7,0.9c-1.1,0.3-2.3,0.4-3.6,0.4c-3.8,0-6.8-1.1-8.9-3.2
			c-2.2-2.2-3.2-5.1-3.2-8.9v-14.4h-8.7V280H302.2z"/>
		<path d="M350.5,280v26.5h9.5v8.7h-27.9v-8.7h9.5v-17.9h-9.5V280H350.5z M345.1,266.2h1.3c1.5,0,2.6,0.4,3.5,1.2
			c0.9,0.8,1.3,1.9,1.3,3.3c0,1.4-0.4,2.5-1.3,3.3c-0.9,0.8-2.1,1.2-3.6,1.2h-1.2c-1.5,0-2.6-0.4-3.5-1.2c-0.9-0.8-1.3-1.9-1.3-3.3
			c0-1.4,0.4-2.5,1.3-3.3C342.5,266.6,343.6,266.2,345.1,266.2z"/>
		<path d="M359.9,280h9.9l6.8,21.2c0.2,0.6,0.3,1.3,0.5,2c0.1,0.6,0.2,1.3,0.3,2.1c0.1,0.8,0.1,1.6,0.1,2.5h0.9c0-0.6,0-1.3,0.1-2
			c0.1-0.6,0.2-1.3,0.3-2.1c0.1-0.8,0.3-1.6,0.5-2.4l6.6-21.2h9.8l-12.1,35.2h-11.5L359.9,280z"/>
		<path d="M398.8,301.8v-8.4c0-2.1,0.4-4.1,1.2-5.8c0.8-1.7,1.9-3.2,3.3-4.4s3.1-2.2,5.1-2.8c2-0.7,4.2-1,6.6-1c2.4,0,4.6,0.3,6.5,1
			c2,0.7,3.6,1.6,5.1,2.9c1.4,1.2,2.5,2.7,3.3,4.4c0.8,1.7,1.2,3.6,1.2,5.7v6.4h-23v1.9c0,2.1,0.6,3.7,1.9,4.9
			c1.2,1.2,2.9,1.8,5.1,1.8c1.6,0,2.9-0.3,4-0.8s1.9-1.2,2.2-2.1h9.4c-0.4,1.5-1.1,2.9-2,4.2c-1,1.3-2.1,2.3-3.5,3.2
			c-1.4,0.9-2.9,1.6-4.6,2.1c-1.7,0.5-3.6,0.7-5.5,0.7c-2.4,0-4.6-0.3-6.6-1c-2-0.7-3.7-1.6-5.1-2.8s-2.5-2.7-3.3-4.4
			C399.2,305.8,398.8,303.8,398.8,301.8z M407.9,294.1h13.8v-0.6c0-2.1-0.6-3.7-1.8-4.9c-1.2-1.2-2.9-1.8-5.1-1.8s-3.9,0.6-5.1,1.8
			c-1.2,1.2-1.9,2.8-1.9,4.9V294.1z"/>
		<path d="M76.3,369.6c0-3.3,1.1-5.9,3.2-7.7c2.2-1.8,5.3-3.1,9.5-3.8l8.4-1.3v-1.9c0-1.2-0.5-2.2-1.5-3c-1-0.8-2.3-1.2-3.8-1.2
			c-3.2,0-5.1,1.1-5.7,3.2h-9.3c0.3-1.7,0.8-3.3,1.6-4.6c0.8-1.3,1.9-2.4,3.2-3.3c1.3-0.9,2.8-1.5,4.5-2c1.7-0.4,3.6-0.7,5.6-0.7
			c2.2,0,4.2,0.3,6.1,0.8c1.8,0.6,3.4,1.3,4.7,2.3c1.3,1,2.3,2.2,3,3.6c0.7,1.4,1.1,3,1.1,4.7v24.3h-9.2v-6.4h-0.5
			c-0.5,2.2-1.6,3.9-3.5,5.2c-1.8,1.3-4.2,1.9-7,1.9c-1.5,0-2.9-0.2-4.2-0.7c-1.3-0.5-2.4-1.2-3.4-2c-1-0.9-1.7-2-2.2-3.2
			C76.6,372.6,76.3,371.2,76.3,369.6z M85.9,368.3c0,1.3,0.4,2.3,1.3,3.1c0.9,0.7,2.1,1.1,3.7,1.1c1.8,0,3.4-0.5,4.6-1.4
			c1.2-1,1.9-2.2,1.9-3.7v-4.2l-7.1,1c-1.2,0.2-2.3,0.6-3.1,1.2C86.3,366,85.9,366.9,85.9,368.3z"/>
		<path d="M115.6,379.2V344h9.1v10.3h0.8c0.2-1.5,0.7-3,1.4-4.3c0.7-1.3,1.6-2.5,2.7-3.5c1.1-1,2.4-1.8,3.8-2.3
			c1.4-0.6,3-0.9,4.7-0.9c0.8,0,1.5,0.1,2.3,0.2c0.7,0.1,1.4,0.2,2,0.4c0.6,0.2,1.1,0.3,1.5,0.5c0.4,0.2,0.7,0.3,0.9,0.4l0.5,0.3
			v9.5l-0.5-0.3c-0.2-0.1-0.5-0.2-0.9-0.4c-0.4-0.2-1-0.4-1.6-0.6c-0.6-0.2-1.4-0.4-2.2-0.5c-0.8-0.1-1.7-0.2-2.6-0.2
			c-1.7,0-3.2,0.3-4.7,0.9c-1.5,0.6-2.8,1.5-3.9,2.6c-1.1,1.1-2,2.5-2.7,4.1c-0.7,1.6-1,3.5-1,5.5v13.6H115.6z"/>
		<path d="M157.4,344v-10.9h9.6V344h11v8.6h-11V367c0,1.2,0.4,2.1,1.1,2.7c0.7,0.6,1.7,0.8,2.8,0.8c1,0,1.9-0.1,2.7-0.4
			c0.8-0.2,1.6-0.5,2.3-0.8v8.5c-0.7,0.3-1.6,0.6-2.7,0.9c-1.1,0.3-2.3,0.4-3.6,0.4c-3.8,0-6.8-1.1-8.9-3.2
			c-2.2-2.2-3.2-5.1-3.2-8.9v-14.4h-8.7V344H157.4z"/>
		<path d="M205.8,344v26.5h9.5v8.7h-27.9v-8.7h9.5v-17.9h-9.5V344H205.8z M200.3,330.2h1.3c1.4,0,2.6,0.4,3.5,1.2
			c0.9,0.8,1.3,1.9,1.3,3.3c0,1.4-0.4,2.5-1.3,3.3c-0.9,0.8-2.1,1.2-3.6,1.2h-1.2c-1.5,0-2.6-0.4-3.5-1.2c-0.9-0.8-1.3-1.9-1.3-3.3
			c0-1.4,0.4-2.5,1.3-3.3C197.7,330.6,198.9,330.2,200.3,330.2z"/>
		<path d="M216.5,356.8v-8.6h8.7V344c0-1.6,0.3-3.1,0.9-4.4c0.6-1.3,1.4-2.5,2.5-3.5c1.1-1,2.3-1.7,3.8-2.2c1.5-0.5,3.2-0.8,5-0.8
			c1.3,0,2.6,0.1,3.8,0.4c1.2,0.3,2.1,0.5,2.7,0.7v8.1c-0.7-0.2-1.5-0.4-2.4-0.6c-0.9-0.2-1.9-0.3-3.1-0.3c-1.2,0-2.1,0.3-2.7,0.8
			c-0.6,0.5-0.9,1.2-0.9,2.1v3.8h11v8.6h-11v22.4h-9.6v-22.4H216.5z"/>
		<path d="M273.1,344v26.5h9.5v8.7h-27.9v-8.7h9.5v-17.9h-9.5V344H273.1z M267.6,330.2h1.3c1.5,0,2.6,0.4,3.5,1.2
			c0.9,0.8,1.3,1.9,1.3,3.3c0,1.4-0.4,2.5-1.3,3.3c-0.9,0.8-2.1,1.2-3.6,1.2h-1.2c-1.5,0-2.6-0.4-3.5-1.2c-0.9-0.8-1.3-1.9-1.3-3.3
			c0-1.4,0.4-2.5,1.3-3.3C265,330.6,266.2,330.2,267.6,330.2z"/>
		<path d="M304.1,343.4c2.1,0,4.1,0.3,6,0.9c1.8,0.6,3.5,1.5,4.9,2.6c1.4,1.1,2.6,2.5,3.5,4c0.9,1.6,1.6,3.4,1.9,5.3h-9.6
			c-0.3-1.4-1-2.5-2.2-3.3c-1.2-0.8-2.7-1.2-4.4-1.2c-2,0-3.6,0.5-4.8,1.4c-1.2,1-1.7,2.3-1.7,4v9c0,1.7,0.6,3,1.7,4
			c1.2,0.9,2.8,1.4,4.8,1.4c1.7,0,3.2-0.4,4.4-1.2c1.2-0.8,2-1.9,2.3-3.3h9.6c-0.3,2-1,3.7-1.9,5.3c-0.9,1.6-2.1,2.9-3.5,4.1
			c-1.4,1.1-3,2-4.9,2.6c-1.8,0.6-3.8,0.9-6,0.9c-2.4,0-4.6-0.3-6.6-1c-2-0.6-3.7-1.6-5.1-2.8c-1.4-1.2-2.5-2.6-3.3-4.3
			c-0.8-1.7-1.2-3.6-1.2-5.7v-9c0-2.1,0.4-4,1.2-5.7c0.8-1.7,1.9-3.1,3.3-4.3c1.4-1.2,3.1-2.1,5.1-2.8
			C299.5,343.7,301.7,343.4,304.1,343.4z"/>
		<path d="M346.1,344v26.5h9.5v8.7h-27.9v-8.7h9.5v-17.9h-9.5V344H346.1z M340.6,330.2h1.3c1.4,0,2.6,0.4,3.5,1.2
			c0.9,0.8,1.3,1.9,1.3,3.3c0,1.4-0.4,2.5-1.3,3.3c-0.9,0.8-2.1,1.2-3.6,1.2h-1.2c-1.5,0-2.6-0.4-3.5-1.2c-0.9-0.8-1.3-1.9-1.3-3.3
			c0-1.4,0.4-2.5,1.3-3.3C338,330.6,339.2,330.2,340.6,330.2z"/>
		<path d="M361,369.6c0-3.3,1.1-5.9,3.2-7.7c2.2-1.8,5.3-3.1,9.5-3.8l8.4-1.3v-1.9c0-1.2-0.5-2.2-1.5-3c-1-0.8-2.3-1.2-3.8-1.2
			c-3.2,0-5.1,1.1-5.7,3.2h-9.3c0.3-1.7,0.8-3.3,1.6-4.6c0.8-1.3,1.9-2.4,3.2-3.3c1.3-0.9,2.8-1.5,4.5-2c1.7-0.4,3.6-0.7,5.6-0.7
			c2.2,0,4.2,0.3,6.1,0.8c1.8,0.6,3.4,1.3,4.7,2.3c1.3,1,2.3,2.2,3,3.6c0.7,1.4,1.1,3,1.1,4.7v24.3h-9.2v-6.4h-0.5
			c-0.5,2.2-1.6,3.9-3.5,5.2c-1.8,1.3-4.2,1.9-7,1.9c-1.5,0-2.9-0.2-4.2-0.7s-2.4-1.2-3.4-2c-1-0.9-1.7-2-2.2-3.2
			C361.3,372.6,361,371.2,361,369.6z M370.6,368.3c0,1.3,0.4,2.3,1.3,3.1c0.9,0.7,2.1,1.1,3.7,1.1c1.8,0,3.4-0.5,4.6-1.4
			s1.9-2.2,1.9-3.7v-4.2l-7.1,1c-1.2,0.2-2.3,0.6-3.1,1.2C371,366,370.6,366.9,370.6,368.3z"/>
		<path d="M393.1,333.1h19.3V367c0,2.3,1.6,3.5,4.7,3.5c1.2,0,2.4-0.1,3.5-0.4c1.1-0.3,2.1-0.6,3-0.9v8.6c-0.8,0.3-1.9,0.6-3.2,0.9
			c-1.3,0.3-2.7,0.4-4.2,0.4c-2,0-3.8-0.2-5.5-0.7c-1.6-0.5-3-1.2-4.2-2.2c-1.2-1-2-2.2-2.7-3.7c-0.6-1.5-1-3.2-1-5.2v-25.5h-9.7
			V333.1z"/>
		<path d="M57.8,408v26.5h9.5v8.7H39.3v-8.7h9.5v-17.9h-9.5V408H57.8z M52.3,394.2h1.3c1.4,0,2.6,0.4,3.5,1.2
			c0.9,0.8,1.3,1.9,1.3,3.3c0,1.4-0.4,2.5-1.3,3.3c-0.9,0.8-2.1,1.2-3.6,1.2h-1.2c-1.5,0-2.6-0.4-3.5-1.2c-0.9-0.8-1.3-1.9-1.3-3.3
			c0-1.4,0.4-2.5,1.3-3.3C49.7,394.6,50.9,394.2,52.3,394.2z"/>
		<path d="M73.1,408h9.1v6.1h0.6c0.3-2.2,1.2-3.8,2.8-5c1.6-1.2,3.6-1.7,6.2-1.7c3.6,0,6.5,1.2,8.5,3.5c2,2.3,3.1,5.5,3.1,9.6v22.7
			h-9.6v-21.8c0-1.8-0.5-3.2-1.5-4.2c-1-1-2.4-1.5-4.1-1.5c-1.7,0-3.1,0.5-4.1,1.5c-1,1-1.5,2.4-1.5,4.2v21.8h-9.6V408z"/>
		<path d="M118.1,408v-10.9h9.6V408h11v8.6h-11V431c0,1.2,0.4,2.1,1.1,2.7c0.7,0.6,1.7,0.8,2.8,0.8c1,0,1.9-0.1,2.7-0.4
			c0.8-0.2,1.6-0.5,2.3-0.8v8.5c-0.7,0.3-1.6,0.6-2.7,0.9c-1.1,0.3-2.3,0.4-3.6,0.4c-3.8,0-6.8-1.1-8.9-3.2
			c-2.2-2.2-3.2-5.1-3.2-8.9v-14.4h-8.7V408H118.1z"/>
		<path d="M145.6,429.8v-8.4c0-2.1,0.4-4.1,1.2-5.8c0.8-1.7,1.9-3.2,3.3-4.4c1.4-1.2,3.1-2.2,5.1-2.8c2-0.7,4.2-1,6.6-1
			c2.4,0,4.6,0.3,6.5,1c2,0.7,3.6,1.6,5.1,2.9c1.4,1.2,2.5,2.7,3.3,4.4c0.8,1.7,1.2,3.6,1.2,5.7v6.4h-23v1.9c0,2.1,0.6,3.7,1.9,4.9
			c1.2,1.2,2.9,1.8,5.1,1.8c1.6,0,2.9-0.3,4-0.8c1.1-0.5,1.9-1.2,2.2-2.1h9.4c-0.4,1.5-1.1,2.9-2,4.2c-1,1.3-2.1,2.3-3.5,3.2
			c-1.4,0.9-2.9,1.6-4.6,2.1c-1.7,0.5-3.6,0.7-5.5,0.7c-2.4,0-4.6-0.3-6.6-1c-2-0.7-3.7-1.6-5.1-2.8c-1.4-1.2-2.5-2.7-3.3-4.4
			C146,433.8,145.6,431.8,145.6,429.8z M154.8,422.1h13.8v-0.6c0-2.1-0.6-3.7-1.8-4.9c-1.2-1.2-2.9-1.8-5.1-1.8
			c-2.2,0-3.9,0.6-5.1,1.8c-1.2,1.2-1.9,2.8-1.9,4.9V422.1z"/>
		<path d="M178,397.1h19.3V431c0,2.3,1.6,3.5,4.7,3.5c1.2,0,2.4-0.1,3.5-0.4c1.1-0.3,2.1-0.6,3-0.9v8.6c-0.8,0.3-1.9,0.6-3.2,0.9
			c-1.3,0.3-2.7,0.4-4.2,0.4c-2,0-3.8-0.2-5.5-0.7c-1.6-0.5-3-1.2-4.2-2.2c-1.2-1-2-2.2-2.7-3.7c-0.6-1.5-1-3.2-1-5.2v-25.5H178
			V397.1z"/>
		<path d="M209.7,397.1h19.3V431c0,2.3,1.6,3.5,4.7,3.5c1.2,0,2.4-0.1,3.5-0.4c1.1-0.3,2.1-0.6,3-0.9v8.6c-0.8,0.3-1.9,0.6-3.2,0.9
			c-1.3,0.3-2.7,0.4-4.2,0.4c-2,0-3.8-0.2-5.5-0.7c-1.6-0.5-3-1.2-4.2-2.2c-1.2-1-2-2.2-2.7-3.7c-0.6-1.5-1-3.2-1-5.2v-25.5h-9.7
			V397.1z"/>
		<path d="M267.4,408v26.5h9.5v8.7H249v-8.7h9.5v-17.9H249V408H267.4z M262,394.2h1.3c1.4,0,2.6,0.4,3.5,1.2
			c0.9,0.8,1.3,1.9,1.3,3.3c0,1.4-0.4,2.5-1.3,3.3c-0.9,0.8-2.1,1.2-3.6,1.2H262c-1.5,0-2.6-0.4-3.5-1.2c-0.9-0.8-1.3-1.9-1.3-3.3
			c0-1.4,0.4-2.5,1.3-3.3C259.4,394.6,260.6,394.2,262,394.2z"/>
		<path d="M281.8,427.2v-6.1c0-2,0.3-3.9,0.9-5.6c0.6-1.7,1.4-3.2,2.5-4.4c1.1-1.2,2.4-2.1,3.9-2.8c1.5-0.7,3.2-1,5-1
			c2.7,0,4.9,0.6,6.5,1.9c1.7,1.3,2.6,3,2.8,5.1h0.4V408h9.3v32.7c0,2.3-0.4,4.2-1.2,5.9c-0.8,1.7-2,3.1-3.5,4.2
			c-1.5,1.1-3.3,1.9-5.3,2.5c-2.1,0.5-4.3,0.8-6.8,0.8s-4.5-0.2-6.3-0.6c-1.8-0.4-3.1-0.8-3.9-1.2v-7.8c0.4,0.2,1,0.4,1.7,0.5
			c0.7,0.2,1.5,0.4,2.4,0.6c0.9,0.2,1.8,0.4,2.8,0.5c1,0.1,2,0.2,2.9,0.2c2.4,0,4.3-0.4,5.6-1.3c1.3-0.9,2-2.3,2-4.4v-0.9l0.3-5.8
			h-0.4c-0.3,2.1-1.2,3.8-2.9,5.1c-1.7,1.3-3.8,1.9-6.5,1.9c-1.8,0-3.5-0.3-5-1c-1.5-0.7-2.8-1.6-3.8-2.8c-1.1-1.2-1.9-2.6-2.5-4.4
			C282.1,431.1,281.8,429.2,281.8,427.2z M297.4,432.6c1.8,0,3.3-0.5,4.4-1.6c1.1-1,1.7-2.4,1.7-4.2v-5.4c0-1.7-0.6-3.1-1.7-4.2
			c-1.1-1-2.6-1.6-4.4-1.6c-1.8,0-3.3,0.5-4.4,1.5c-1.1,1-1.6,2.4-1.6,4.2v5.4c0,1.8,0.5,3.2,1.6,4.2
			C294.1,432.1,295.6,432.6,297.4,432.6z"/>
		<path d="M319.7,429.8v-8.4c0-2.1,0.4-4.1,1.2-5.8c0.8-1.7,1.9-3.2,3.3-4.4c1.4-1.2,3.1-2.2,5.1-2.8c2-0.7,4.2-1,6.6-1
			c2.4,0,4.6,0.3,6.5,1c2,0.7,3.6,1.6,5.1,2.9c1.4,1.2,2.5,2.7,3.3,4.4c0.8,1.7,1.2,3.6,1.2,5.7v6.4h-23v1.9c0,2.1,0.6,3.7,1.9,4.9
			c1.2,1.2,2.9,1.8,5.1,1.8c1.6,0,2.9-0.3,4-0.8s1.9-1.2,2.2-2.1h9.4c-0.4,1.5-1.1,2.9-2,4.2c-1,1.3-2.1,2.3-3.5,3.2
			c-1.4,0.9-2.9,1.6-4.6,2.1c-1.7,0.5-3.6,0.7-5.5,0.7c-2.4,0-4.6-0.3-6.6-1c-2-0.7-3.7-1.6-5.1-2.8c-1.4-1.2-2.5-2.7-3.3-4.4
			C320.1,433.8,319.7,431.8,319.7,429.8z M328.9,422.1h13.8v-0.6c0-2.1-0.6-3.7-1.8-4.9c-1.2-1.2-2.9-1.8-5.1-1.8
			c-2.2,0-3.9,0.6-5.1,1.8c-1.2,1.2-1.9,2.8-1.9,4.9V422.1z"/>
		<path d="M358.3,408h9.1v6.1h0.6c0.3-2.2,1.2-3.8,2.8-5c1.6-1.2,3.6-1.7,6.2-1.7c3.6,0,6.5,1.2,8.5,3.5c2,2.3,3.1,5.5,3.1,9.6v22.7
			H379v-21.8c0-1.8-0.5-3.2-1.5-4.2c-1-1-2.4-1.5-4.1-1.5c-1.7,0-3.1,0.5-4.1,1.5c-1,1-1.5,2.4-1.5,4.2v21.8h-9.6V408z"/>
		<path d="M411.4,407.4c2.1,0,4.1,0.3,6,0.9c1.8,0.6,3.5,1.5,4.9,2.6s2.6,2.5,3.5,4c0.9,1.6,1.6,3.4,1.9,5.3h-9.6
			c-0.3-1.4-1-2.5-2.2-3.3c-1.2-0.8-2.7-1.2-4.4-1.2c-2,0-3.6,0.5-4.8,1.4s-1.7,2.3-1.7,4v9c0,1.7,0.6,3,1.7,4s2.8,1.4,4.8,1.4
			c1.7,0,3.2-0.4,4.4-1.2c1.2-0.8,2-1.9,2.3-3.3h9.6c-0.3,2-1,3.7-1.9,5.3c-0.9,1.6-2.1,2.9-3.5,4.1c-1.4,1.1-3,2-4.9,2.6
			c-1.8,0.6-3.8,0.9-6,0.9c-2.4,0-4.6-0.3-6.6-1s-3.7-1.6-5.1-2.8c-1.4-1.2-2.5-2.6-3.3-4.3c-0.8-1.7-1.2-3.6-1.2-5.7v-9
			c0-2.1,0.4-4,1.2-5.7c0.8-1.7,1.9-3.1,3.3-4.3c1.4-1.2,3.1-2.1,5.1-2.8C406.8,407.7,409,407.4,411.4,407.4z"/>
		<path d="M433.2,429.8v-8.4c0-2.1,0.4-4.1,1.2-5.8c0.8-1.7,1.9-3.2,3.3-4.4s3.1-2.2,5.1-2.8c2-0.7,4.2-1,6.6-1c2.4,0,4.6,0.3,6.5,1
			c2,0.7,3.6,1.6,5.1,2.9c1.4,1.2,2.5,2.7,3.3,4.4c0.8,1.7,1.2,3.6,1.2,5.7v6.4h-23v1.9c0,2.1,0.6,3.7,1.9,4.9
			c1.2,1.2,2.9,1.8,5.1,1.8c1.6,0,2.9-0.3,4-0.8c1.1-0.5,1.9-1.2,2.2-2.1h9.4c-0.4,1.5-1.1,2.9-2,4.2c-1,1.3-2.1,2.3-3.5,3.2
			c-1.4,0.9-2.9,1.6-4.6,2.1c-1.7,0.5-3.6,0.7-5.5,0.7c-2.4,0-4.6-0.3-6.6-1c-2-0.7-3.7-1.6-5.1-2.8s-2.5-2.7-3.3-4.4
			C433.5,433.8,433.2,431.8,433.2,429.8z M442.3,422.1h13.8v-0.6c0-2.1-0.6-3.7-1.8-4.9c-1.2-1.2-2.9-1.8-5.1-1.8s-3.9,0.6-5.1,1.8
			c-1.2,1.2-1.9,2.8-1.9,4.9V422.1z"/>
	</g>
	<g>
		<path d="M47.5,187.9v-69.6c0-8,1.4-15.2,4.3-21.7s7-12,12.2-16.6c5.3-4.6,11.6-8.1,19.1-10.7c7.4-2.6,15.7-3.8,24.8-3.8
			c8.5,0,16.2,1.2,23.3,3.5c7,2.3,13.2,5.7,18.5,10.1c5.3,4.4,9.5,9.7,12.7,16c3.2,6.2,5.2,13.2,6,20.9h-36
			c-0.6-5.6-3.2-10-7.6-13.2c-4.4-3.2-10-4.8-16.9-4.8c-7.5,0-13.5,1.9-17.9,5.6c-4.4,3.8-6.6,8.7-6.6,14.8v69.6
			c0,6.9,2.2,12.4,6.6,16.4c4.4,4.1,10.4,6.1,17.9,6.1c7.5,0,13.5-2,17.9-6.1c4.4-4.1,6.6-9.6,6.6-16.4V174h-26.9v-30.5h62.9v44.4
			c0,8.2-1.4,15.6-4.3,22.2c-2.9,6.6-7,12.3-12.2,17c-5.3,4.7-11.6,8.4-19.1,10.9c-7.4,2.6-15.7,3.8-24.8,3.8s-17.4-1.3-24.8-3.8
			c-7.4-2.6-13.8-6.2-19.1-10.9c-5.3-4.7-9.4-10.4-12.2-17C49,203.5,47.5,196.1,47.5,187.9z"/>
		<path d="M231.5,66.7h48l45.1,172.8h-36.5l-9.1-39.6h-48.2l-9.1,39.6h-36.2L231.5,66.7z M272.3,171.8l-13.2-56.9
			c-0.5-1.9-0.9-4.2-1.2-6.7c-0.3-2.1-0.7-4.6-1.2-7.6c-0.5-3-0.9-6.3-1.2-10H254c-0.3,2.9-0.7,5.7-1.2,8.4c-0.3,2.6-0.7,5.2-1.1,8
			c-0.4,2.8-0.9,5.4-1.6,7.8l-13,56.9H272.3z"/>
		<path d="M345.4,97.9V66.7h101.3v31.2H414v110.4h32.6v31.2H345.4v-31.2H378V97.9H345.4z"/>
	</g>
</g>
</svg>
