<?xml version="1.0" encoding="utf-8"?>
<!-- Generator: Adobe Illustrator 28.2.0, SVG Export Plug-In . SVG Version: 6.00 Build 0)  -->
<svg version="1.1" xmlns="http://www.w3.org/2000/svg" xmlns:xlink="http://www.w3.org/1999/xlink" x="0px" y="0px"
	 viewBox="0 0 500 500" style="enable-background:new 0 0 500 500;" xml:space="preserve">
<style type="text/css">
	.st0{fill:none;stroke:#00C3FF;}
	.st1{fill:none;stroke:#FF00FF;}
	.st2{fill:none;stroke:#00FF00;}
</style>
<g id="Layer_3">
	<g>
		<line class="st0" x1="362" y1="227" x2="480" y2="315"/>
		<line class="st0" x1="291" y1="409" x2="332" y2="367"/>
		<line class="st0" x1="271" y1="39" x2="50" y2="275"/>
		<line class="st0" x1="270" y1="149" x2="465" y2="167"/>
		<line class="st0" x1="79" y1="108" x2="457" y2="53"/>
		<line class="st0" x1="320" y1="93" x2="468" y2="342"/>
		<line class="st0" x1="138" y1="231" x2="378" y2="35"/>
		<line class="st0" x1="464" y1="100" x2="149" y2="62"/>
		<line class="st0" x1="59" y1="95" x2="272" y2="405"/>
		<line class="st0" x1="203" y1="94" x2="353" y2="188"/>
		<line class="st0" x1="302" y1="437" x2="379" y2="142"/>
		<line class="st0" x1="453" y1="375" x2="384" y2="197"/>
		<line class="st0" x1="141" y1="34" x2="296" y2="177"/>
		<line class="st0" x1="52" y1="420" x2="401" y2="159"/>
		<line class="st0" x1="158" y1="90" x2="146" y2="438"/>
		<line class="st0" x1="455" y1="158" x2="125" y2="433"/>
		<line class="st0" x1="203" y1="498" x2="173" y2="42"/>
		<line class="st0" x1="115" y1="153" x2="316" y2="47"/>
		<line class="st0" x1="499" y1="87" x2="10" y2="119"/>
		<line class="st0" x1="4" y1="168" x2="20" y2="485"/>
		<line class="st0" x1="454" y1="152" x2="0" y2="311"/>
		<line class="st0" x1="240" y1="47" x2="258" y2="276"/>
		<line class="st0" x1="280" y1="446" x2="414" y2="484"/>
		<line class="st0" x1="85" y1="386" x2="16" y2="115"/>
		<line class="st0" x1="491" y1="322" x2="477" y2="74"/>
		<line class="st0" x1="10" y1="93" x2="70" y2="92"/>
		<line class="st0" x1="130" y1="12" x2="301" y2="114"/>
		<line class="st0" x1="293" y1="239" x2="483" y2="2"/>
		<line class="st0" x1="441" y1="148" x2="472" y2="378"/>
		<line class="st0" x1="374" y1="286" x2="423" y2="294"/>
		<line class="st0" x1="472" y1="182" x2="171" y2="4"/>
		<line class="st0" x1="419" y1="272" x2="85" y2="323"/>
		<line class="st0" x1="99" y1="135" x2="217" y2="153"/>
		<line class="st0" x1="317" y1="360" x2="377" y2="102"/>
		<line class="st0" x1="71" y1="318" x2="165" y2="240"/>
		<line class="st0" x1="110" y1="234" x2="94" y2="14"/>
		<line class="st0" x1="269" y1="62" x2="62" y2="103"/>
		<line class="st0" x1="191" y1="284" x2="302" y2="358"/>
		<line class="st0" x1="170" y1="105" x2="44" y2="462"/>
		<line class="st0" x1="239" y1="295" x2="196" y2="135"/>
		<line class="st0" x1="64" y1="251" x2="488" y2="137"/>
		<line class="st0" x1="480" y1="154" x2="276" y2="325"/>
		<line class="st0" x1="359" y1="138" x2="16" y2="181"/>
		<line class="st0" x1="400" y1="332" x2="231" y2="150"/>
		<line class="st0" x1="237" y1="162" x2="7" y2="335"/>
		<line class="st0" x1="169" y1="348" x2="384" y2="448"/>
		<line class="st0" x1="355" y1="407" x2="494" y2="73"/>
		<line class="st0" x1="221" y1="321" x2="234" y2="43"/>
		<line class="st0" x1="13" y1="471" x2="148" y2="319"/>
		<line class="st0" x1="35" y1="383" x2="214" y2="216"/>
		<line class="st0" x1="496" y1="49" x2="333" y2="209"/>
		<line class="st0" x1="414" y1="262" x2="175" y2="485"/>
		<line class="st0" x1="125" y1="220" x2="345" y2="328"/>
		<line class="st0" x1="179" y1="25" x2="482" y2="0"/>
		<line class="st0" x1="352" y1="298" x2="110" y2="6"/>
		<line class="st0" x1="60" y1="5" x2="15" y2="277"/>
		<line class="st0" x1="425" y1="327" x2="365" y2="423"/>
		<line class="st0" x1="368" y1="225" x2="275" y2="130"/>
		<line class="st0" x1="36" y1="446" x2="114" y2="40"/>
		<line class="st0" x1="285" y1="474" x2="437" y2="201"/>
		<line class="st0" x1="106" y1="217" x2="99" y2="373"/>
		<line class="st0" x1="322" y1="106" x2="63" y2="264"/>
		<line class="st0" x1="90" y1="235" x2="480" y2="222"/>
		<line class="st0" x1="187" y1="372" x2="168" y2="382"/>
		<line class="st0" x1="372" y1="199" x2="149" y2="369"/>
		<line class="st0" x1="369" y1="466" x2="43" y2="6"/>
		<line class="st0" x1="184" y1="300" x2="53" y2="327"/>
		<line class="st0" x1="313" y1="59" x2="443" y2="2"/>
		<line class="st0" x1="37" y1="484" x2="165" y2="401"/>
		<line class="st0" x1="1" y1="20" x2="149" y2="357"/>
		<line class="st0" x1="311" y1="80" x2="369" y2="395"/>
		<line class="st0" x1="102" y1="424" x2="372" y2="316"/>
		<line class="st0" x1="297" y1="231" x2="335" y2="497"/>
		<line class="st0" x1="489" y1="336" x2="497" y2="160"/>
		<line class="st0" x1="138" y1="497" x2="390" y2="483"/>
		<line class="st0" x1="86" y1="244" x2="496" y2="241"/>
		<line class="st0" x1="397" y1="67" x2="208" y2="301"/>
		<line class="st0" x1="279" y1="465" x2="82" y2="192"/>
		<line class="st0" x1="481" y1="448" x2="373" y2="192"/>
		<line class="st0" x1="111" y1="155" x2="137" y2="71"/>
		<line class="st0" x1="402" y1="209" x2="395" y2="14"/>
		<line class="st0" x1="66" y1="182" x2="74" y2="169"/>
		<line class="st0" x1="224" y1="296" x2="159" y2="52"/>
		<line class="st0" x1="332" y1="438" x2="59" y2="359"/>
		<line class="st0" x1="337" y1="396" x2="121" y2="19"/>
		<line class="st0" x1="99" y1="271" x2="192" y2="151"/>
		<line class="st0" x1="445" y1="139" x2="484" y2="164"/>
		<line class="st0" x1="348" y1="116" x2="277" y2="351"/>
		<line class="st0" x1="438" y1="481" x2="458" y2="366"/>
		<line class="st0" x1="137" y1="466" x2="354" y2="172"/>
		<line class="st0" x1="7" y1="321" x2="48" y2="424"/>
		<line class="st0" x1="8" y1="415" x2="497" y2="76"/>
		<line class="st0" x1="184" y1="431" x2="363" y2="320"/>
		<line class="st0" x1="470" y1="446" x2="440" y2="291"/>
		<line class="st0" x1="23" y1="237" x2="363" y2="286"/>
		<line class="st0" x1="424" y1="331" x2="493" y2="172"/>
		<line class="st0" x1="260" y1="168" x2="118" y2="481"/>
		<line class="st0" x1="399" y1="271" x2="386" y2="119"/>
		<line class="st0" x1="239" y1="293" x2="270" y2="71"/>
		<line class="st0" x1="198" y1="78" x2="46" y2="121"/>
		<line class="st0" x1="217" y1="392" x2="418" y2="115"/>
		<line class="st0" x1="263" y1="237" x2="342" y2="417"/>
		<line class="st0" x1="321" y1="327" x2="463" y2="178"/>
		<line class="st0" x1="341" y1="5" x2="6" y2="371"/>
		<line class="st0" x1="153" y1="445" x2="123" y2="92"/>
		<line class="st0" x1="281" y1="451" x2="386" y2="173"/>
		<line class="st0" x1="221" y1="497" x2="371" y2="488"/>
		<line class="st0" x1="123" y1="495" x2="63" y2="199"/>
		<line class="st0" x1="77" y1="298" x2="344" y2="263"/>
		<line class="st0" x1="166" y1="243" x2="306" y2="257"/>
		<line class="st0" x1="451" y1="258" x2="296" y2="470"/>
		<line class="st0" x1="378" y1="42" x2="247" y2="460"/>
		<line class="st0" x1="283" y1="460" x2="435" y2="105"/>
		<line class="st0" x1="424" y1="49" x2="389" y2="82"/>
		<line class="st0" x1="496" y1="366" x2="254" y2="303"/>
		<line class="st0" x1="44" y1="140" x2="444" y2="335"/>
		<line class="st0" x1="362" y1="128" x2="433" y2="421"/>
		<line class="st0" x1="156" y1="75" x2="179" y2="118"/>
		<line class="st0" x1="494" y1="285" x2="482" y2="166"/>
		<line class="st1" x1="121" y1="283" x2="107" y2="60"/>
		<line class="st1" x1="387" y1="430" x2="79" y2="55"/>
		<line class="st1" x1="382" y1="496" x2="389" y2="497"/>
		<line class="st1" x1="288" y1="178" x2="217" y2="122"/>
		<line class="st1" x1="20" y1="500" x2="166" y2="82"/>
		<line class="st1" x1="313" y1="202" x2="134" y2="349"/>
		<line class="st1" x1="401" y1="254" x2="438" y2="352"/>
		<line class="st1" x1="457" y1="77" x2="2" y2="482"/>
		<line class="st1" x1="160" y1="493" x2="407" y2="483"/>
		<line class="st1" x1="135" y1="408" x2="434" y2="145"/>
		<line class="st1" x1="345" y1="40" x2="469" y2="234"/>
		<line class="st1" x1="8" y1="135" x2="202" y2="62"/>
		<line class="st1" x1="88" y1="302" x2="292" y2="374"/>
		<line class="st1" x1="274" y1="466" x2="359" y2="54"/>
		<line class="st1" x1="394" y1="149" x2="48" y2="175"/>
		<line class="st1" x1="218" y1="396" x2="82" y2="56"/>
		<line class="st1" x1="136" y1="3" x2="188" y2="267"/>
		<line class="st1" x1="366" y1="480" x2="356" y2="378"/>
		<line class="st1" x1="385" y1="326" x2="443" y2="218"/>
		<line class="st1" x1="93" y1="462" x2="93" y2="50"/>
		<line class="st1" x1="23" y1="376" x2="493" y2="497"/>
		<line class="st1" x1="320" y1="63" x2="183" y2="462"/>
		<line class="st1" x1="27" y1="435" x2="481" y2="205"/>
		<line class="st1" x1="76" y1="111" x2="392" y2="259"/>
		<line class="st1" x1="227" y1="229" x2="463" y2="144"/>
		<line class="st1" x1="344" y1="43" x2="354" y2="7"/>
		<line class="st1" x1="7" y1="53" x2="472" y2="288"/>
		<line class="st1" x1="71" y1="406" x2="248" y2="114"/>
		<line class="st1" x1="108" y1="473" x2="142" y2="52"/>
		<line class="st1" x1="430" y1="192" x2="276" y2="80"/>
		<line class="st1" x1="2" y1="226" x2="390" y2="344"/>
		<line class="st1" x1="90" y1="308" x2="256" y2="299"/>
		<line class="st1" x1="237" y1="355" x2="385" y2="142"/>
		<line class="st1" x1="117" y1="167" x2="490" y2="313"/>
		<line class="st1" x1="366" y1="116" x2="424" y2="44"/>
		<line class="st1" x1="489" y1="192" x2="390" y2="66"/>
		<line class="st1" x1="30" y1="286" x2="106" y2="253"/>
		<line class="st1" x1="366" y1="219" x2="424" y2="370"/>
		<line class="st1" x1="326" y1="171" x2="451" y2="264"/>
		<line class="st1" x1="88" y1="176" x2="482" y2="295"/>
		<line class="st1" x1="267" y1="98" x2="274" y2="233"/>
		<line class="st1" x1="11" y1="470" x2="306" y2="394"/>
		<line class="st1" x1="257" y1="357" x2="46" y2="261"/>
		<line class="st1" x1="376" y1="114" x2="393" y2="191"/>
		<line class="st1" x1="100" y1="499" x2="144" y2="39"/>
		<line class="st1" x1="125" y1="277" x2="190" y2="338"/>
		<line class="st1" x1="99" y1="463" x2="130" y2="193"/>
		<line class="st1" x1="419" y1="184" x2="229" y2="473"/>
		<line class="st1" x1="341" y1="150" x2="245" y2="331"/>
		<line class="st1" x1="237" y1="187" x2="3" y2="202"/>
		<line class="st1" x1="41" y1="309" x2="129" y2="261"/>
		<line class="st1" x1="26" y1="135" x2="443" y2="318"/>
		<line class="st1" x1="480" y1="196" x2="415" y2="323"/>
		<line class="st1" x1="54" y1="415" x2="193" y2="446"/>
		<line class="st1" x1="67" y1="351" x2="197" y2="389"/>
		<line class="st1" x1="48" y1="11" x2="306" y2="346"/>
		<line class="st1" x1="482" y1="194" x2="211" y2="377"/>
		<line class="st1" x1="457" y1="185" x2="350" y2="275"/>
		<line class="st1" x1="199" y1="246" x2="302" y2="407"/>
		<line class="st1" x1="6" y1="130" x2="395" y2="351"/>
		<line class="st1" x1="351" y1="192" x2="77" y2="126"/>
		<line class="st1" x1="74" y1="376" x2="288" y2="64"/>
		<line class="st1" x1="496" y1="64" x2="227" y2="200"/>
		<line class="st1" x1="174" y1="90" x2="155" y2="50"/>
		<line class="st1" x1="350" y1="54" x2="316" y2="195"/>
		<line class="st1" x1="214" y1="230" x2="318" y2="466"/>
		<line class="st1" x1="295" y1="178" x2="245" y2="499"/>
		<line class="st1" x1="219" y1="448" x2="206" y2="425"/>
		<line class="st1" x1="397" y1="500" x2="12" y2="49"/>
		<line class="st1" x1="313" y1="8" x2="254" y2="351"/>
		<line class="st1" x1="229" y1="479" x2="100" y2="272"/>
		<line class="st1" x1="160" y1="279" x2="133" y2="175"/>
		<line class="st1" x1="169" y1="343" x2="193" y2="19"/>
		<line class="st1" x1="120" y1="238" x2="172" y2="181"/>
		<line class="st1" x1="477" y1="460" x2="471" y2="298"/>
		<line class="st1" x1="152" y1="310" x2="297" y2="266"/>
		<line class="st1" x1="448" y1="281" x2="191" y2="100"/>
		<line class="st1" x1="235" y1="3" x2="411" y2="109"/>
		<line class="st1" x1="387" y1="339" x2="127" y2="97"/>
		<line class="st1" x1="333" y1="55" x2="400" y2="83"/>
		<line class="st1" x1="134" y1="405" x2="250" y2="183"/>
		<line class="st1" x1="484" y1="449" x2="353" y2="153"/>
		<line class="st1" x1="163" y1="493" x2="403" y2="143"/>
		<line class="st1" x1="198" y1="174" x2="62" y2="434"/>
		<line class="st1" x1="188" y1="327" x2="104" y2="161"/>
		<line class="st1" x1="209" y1="177" x2="415" y2="312"/>
		<line class="st1" x1="64" y1="331" x2="462" y2="85"/>
		<line class="st1" x1="232" y1="30" x2="2" y2="293"/>
		<line class="st1" x1="176" y1="302" x2="233" y2="461"/>
		<line class="st1" x1="181" y1="388" x2="402" y2="408"/>
		<line class="st1" x1="279" y1="475" x2="425" y2="420"/>
		<line class="st1" x1="158" y1="436" x2="429" y2="456"/>
		<line class="st1" x1="361" y1="270" x2="447" y2="89"/>
		<line class="st1" x1="257" y1="288" x2="132" y2="208"/>
		<line class="st1" x1="407" y1="105" x2="485" y2="433"/>
		<line class="st1" x1="34" y1="160" x2="205" y2="464"/>
		<line class="st1" x1="5" y1="237" x2="19" y2="8"/>
		<line class="st1" x1="86" y1="9" x2="197" y2="374"/>
		<line class="st1" x1="48" y1="29" x2="87" y2="206"/>
		<line class="st1" x1="315" y1="303" x2="268" y2="238"/>
		<line class="st1" x1="224" y1="84" x2="315" y2="206"/>
		<line class="st1" x1="400" y1="460" x2="150" y2="335"/>
		<line class="st1" x1="343" y1="399" x2="398" y2="3"/>
		<line class="st1" x1="287" y1="434" x2="150" y2="85"/>
		<line class="st1" x1="259" y1="217" x2="226" y2="400"/>
		<line class="st1" x1="342" y1="261" x2="317" y2="441"/>
		<line class="st1" x1="261" y1="481" x2="340" y2="247"/>
		<line class="st1" x1="47" y1="97" x2="146" y2="344"/>
		<line class="st1" x1="80" y1="398" x2="70" y2="106"/>
		<line class="st1" x1="434" y1="343" x2="257" y2="137"/>
		<line class="st1" x1="271" y1="442" x2="79" y2="449"/>
		<line class="st1" x1="369" y1="493" x2="20" y2="8"/>
		<line class="st1" x1="266" y1="241" x2="362" y2="458"/>
		<line class="st1" x1="57" y1="450" x2="448" y2="51"/>
		<line class="st1" x1="472" y1="222" x2="280" y2="327"/>
		<line class="st1" x1="51" y1="437" x2="292" y2="108"/>
		<line class="st1" x1="265" y1="41" x2="25" y2="311"/>
		<line class="st1" x1="376" y1="116" x2="215" y2="246"/>
		<line class="st1" x1="313" y1="243" x2="294" y2="311"/>
		<line class="st1" x1="243" y1="292" x2="497" y2="339"/>
		<line class="st1" x1="384" y1="96" x2="252" y2="380"/>
		<line class="st2" x1="464" y1="101" x2="183" y2="379"/>
		<line class="st2" x1="254" y1="156" x2="297" y2="214"/>
		<line class="st2" x1="249" y1="247" x2="335" y2="220"/>
		<line class="st2" x1="98" y1="170" x2="374" y2="236"/>
		<line class="st2" x1="332" y1="289" x2="141" y2="60"/>
		<line class="st2" x1="496" y1="41" x2="221" y2="494"/>
		<line class="st2" x1="457" y1="110" x2="416" y2="183"/>
		<line class="st2" x1="311" y1="251" x2="461" y2="168"/>
		<line class="st2" x1="449" y1="464" x2="100" y2="358"/>
		<line class="st2" x1="114" y1="319" x2="424" y2="230"/>
		<line class="st2" x1="332" y1="438" x2="56" y2="446"/>
		<line class="st2" x1="194" y1="153" x2="194" y2="28"/>
		<line class="st2" x1="426" y1="279" x2="220" y2="474"/>
		<line class="st2" x1="128" y1="204" x2="77" y2="26"/>
		<line class="st2" x1="495" y1="86" x2="6" y2="323"/>
		<line class="st2" x1="297" y1="170" x2="109" y2="322"/>
		<line class="st2" x1="130" y1="440" x2="432" y2="216"/>
		<line class="st2" x1="72" y1="167" x2="395" y2="263"/>
		<line class="st2" x1="140" y1="411" x2="479" y2="237"/>
		<line class="st2" x1="476" y1="276" x2="320" y2="247"/>
		<line class="st2" x1="150" y1="410" x2="328" y2="339"/>
		<line class="st2" x1="127" y1="374" x2="368" y2="246"/>
		<line class="st2" x1="302" y1="433" x2="421" y2="173"/>
		<line class="st2" x1="292" y1="449" x2="159" y2="82"/>
		<line class="st2" x1="494" y1="187" x2="490" y2="69"/>
		<line class="st2" x1="64" y1="453" x2="239" y2="315"/>
		<line class="st2" x1="90" y1="281" x2="163" y2="347"/>
		<line class="st2" x1="5" y1="108" x2="249" y2="97"/>
		<line class="st2" x1="308" y1="76" x2="274" y2="384"/>
		<line class="st2" x1="42" y1="143" x2="182" y2="42"/>
		<line class="st2" x1="73" y1="476" x2="163" y2="448"/>
		<line class="st2" x1="6" y1="114" x2="21" y2="435"/>
		<line class="st2" x1="22" y1="443" x2="113" y2="169"/>
		<line class="st2" x1="412" y1="307" x2="112" y2="492"/>
		<line class="st2" x1="394" y1="225" x2="364" y2="318"/>
		<line class="st2" x1="367" y1="316" x2="255" y2="318"/>
		<line class="st2" x1="323" y1="89" x2="348" y2="169"/>
		<line class="st2" x1="228" y1="101" x2="302" y2="158"/>
		<line class="st2" x1="372" y1="15" x2="117" y2="87"/>
		<line class="st2" x1="240" y1="130" x2="346" y2="102"/>
		<line class="st2" x1="149" y1="57" x2="47" y2="58"/>
		<line class="st2" x1="410" y1="332" x2="213" y2="327"/>
		<line class="st2" x1="28" y1="113" x2="194" y2="288"/>
		<line class="st2" x1="310" y1="307" x2="64" y2="102"/>
	</g>
	<line class="st2" x1="332" y1="371" x2="480" y2="297"/>
	<line class="st2" x1="350" y1="287" x2="58" y2="353"/>
	<line class="st2" x1="132" y1="213" x2="120" y2="86"/>
	<line class="st2" x1="221" y1="80" x2="249" y2="144"/>
	<line class="st2" x1="221" y1="240" x2="98" y2="257"/>
	<line class="st2" x1="62" y1="237" x2="112" y2="387"/>
	<line class="st2" x1="364" y1="88" x2="242" y2="388"/>
	<line class="st2" x1="337" y1="480" x2="143" y2="347"/>
	<line class="st2" x1="135" y1="192" x2="35" y2="465"/>
	<line class="st2" x1="44" y1="190" x2="431" y2="285"/>
	<line class="st2" x1="132" y1="276" x2="289" y2="107"/>
	<line class="st2" x1="85" y1="165" x2="316" y2="472"/>
	<line class="st2" x1="195" y1="236" x2="187" y2="225"/>
	<line class="st2" x1="44" y1="366" x2="415" y2="51"/>
	<line class="st2" x1="300" y1="436" x2="139" y2="19"/>
	<line class="st2" x1="245" y1="458" x2="441" y2="83"/>
	<line class="st2" x1="188" y1="53" x2="360" y2="13"/>
	<line class="st2" x1="264" y1="284" x2="92" y2="426"/>
	<line class="st2" x1="363" y1="459" x2="397" y2="430"/>
	<line class="st2" x1="280" y1="65" x2="367" y2="59"/>
	<line class="st2" x1="203" y1="370" x2="419" y2="250"/>
	<line class="st2" x1="186" y1="357" x2="328" y2="145"/>
	<line class="st2" x1="321" y1="66" x2="382" y2="255"/>
	<line class="st2" x1="325" y1="250" x2="80" y2="337"/>
	<line class="st2" x1="413" y1="39" x2="139" y2="31"/>
	<line class="st2" x1="404" y1="378" x2="286" y2="123"/>
	<line class="st2" x1="458" y1="79" x2="418" y2="332"/>
	<line class="st2" x1="319" y1="467" x2="51" y2="85"/>
	<line class="st2" x1="150" y1="178" x2="306" y2="213"/>
	<line class="st2" x1="341" y1="310" x2="298" y2="299"/>
	<line class="st2" x1="299" y1="281" x2="327" y2="279"/>
	<line class="st2" x1="389" y1="428" x2="366" y2="228"/>
	<line class="st2" x1="53" y1="42" x2="6" y2="212"/>
	<line class="st2" x1="256" y1="100" x2="42" y2="264"/>
	<line class="st2" x1="10" y1="384" x2="391" y2="57"/>
	<line class="st2" x1="323" y1="100" x2="104" y2="416"/>
	<line class="st2" x1="261" y1="452" x2="11" y2="87"/>
	<line class="st2" x1="357" y1="460" x2="467" y2="427"/>
	<line class="st2" x1="66" y1="318" x2="79" y2="150"/>
	<line class="st2" x1="39" y1="477" x2="219" y2="95"/>
	<line class="st2" x1="414" y1="39" x2="120" y2="220"/>
	<line class="st2" x1="90" y1="447" x2="449" y2="426"/>
	<line class="st2" x1="271" y1="246" x2="438" y2="449"/>
	<line class="st2" x1="488" y1="278" x2="113" y2="429"/>
	<line class="st2" x1="4" y1="13" x2="444" y2="379"/>
	<line class="st2" x1="378" y1="340" x2="409" y2="250"/>
	<line class="st2" x1="417" y1="314" x2="53" y2="16"/>
	<line class="st2" x1="465" y1="308" x2="297" y2="441"/>
	<line class="st2" x1="407" y1="367" x2="89" y2="154"/>
	<line class="st2" x1="146" y1="477" x2="263" y2="121"/>
	<line class="st2" x1="123" y1="318" x2="19" y2="298"/>
	<line class="st2" x1="387" y1="416" x2="476" y2="402"/>
	<line class="st2" x1="336" y1="2" x2="137" y2="98"/>
	<line class="st2" x1="175" y1="266" x2="85" y2="335"/>
	<line class="st2" x1="270" y1="394" x2="409" y2="278"/>
	<line class="st2" x1="202" y1="435" x2="133" y2="29"/>
	<line class="st2" x1="132" y1="91" x2="366" y2="152"/>
	<line class="st2" x1="110" y1="87" x2="369" y2="432"/>
	<line class="st2" x1="365" y1="384" x2="429" y2="318"/>
	<line class="st2" x1="9" y1="341" x2="423" y2="237"/>
	<line class="st2" x1="260" y1="193" x2="324" y2="416"/>
	<line class="st2" x1="326" y1="315" x2="228" y2="465"/>
	<line class="st2" x1="345" y1="41" x2="397" y2="14"/>
	<line class="st2" x1="174" y1="479" x2="183" y2="66"/>
	<line class="st2" x1="192" y1="139" x2="13" y2="191"/>
	<line class="st2" x1="212" y1="42" x2="100" y2="152"/>
	<line class="st2" x1="19" y1="252" x2="74" y2="171"/>
	<line class="st2" x1="227" y1="487" x2="219" y2="236"/>
	<line class="st2" x1="37" y1="374" x2="472" y2="382"/>
	<line class="st2" x1="402" y1="132" x2="119" y2="422"/>
	<line class="st2" x1="84" y1="202" x2="483" y2="363"/>
	<line class="st2" x1="236" y1="441" x2="467" y2="12"/>
	<line class="st2" x1="221" y1="71" x2="272" y2="400"/>
	<line class="st2" x1="451" y1="59" x2="190" y2="96"/>
	<line class="st2" x1="242" y1="430" x2="375" y2="396"/>
	<line class="st2" x1="390" y1="190" x2="261" y2="69"/>
	<line class="st2" x1="327" y1="35" x2="360" y2="168"/>
	<line class="st2" x1="132" y1="434" x2="496" y2="476"/>
	<line class="st2" x1="335" y1="487" x2="350" y2="13"/>
	<line class="st2" x1="500" y1="181" x2="305" y2="352"/>
	<line class="st2" x1="260" y1="85" x2="376" y2="254"/>
	<line class="st2" x1="492" y1="199" x2="301" y2="25"/>
	<line class="st2" x1="283" y1="348" x2="486" y2="14"/>
	<line class="st2" x1="383" y1="79" x2="44" y2="92"/>
	<line class="st2" x1="70" y1="45" x2="48" y2="121"/>
	<line class="st2" x1="83" y1="112" x2="188" y2="398"/>
	<line class="st2" x1="158" y1="330" x2="195" y2="346"/>
	<line class="st2" x1="202" y1="246" x2="381" y2="185"/>
	<line class="st2" x1="157" y1="451" x2="207" y2="26"/>
	<line class="st2" x1="411" y1="265" x2="242" y2="383"/>
	<line class="st2" x1="178" y1="9" x2="140" y2="459"/>
	<line class="st2" x1="362" y1="458" x2="413" y2="452"/>
	<line class="st2" x1="185" y1="205" x2="484" y2="487"/>
	<line class="st2" x1="189" y1="58" x2="119" y2="180"/>
	<line class="st2" x1="262" y1="10" x2="488" y2="359"/>
	<line class="st2" x1="126" y1="457" x2="199" y2="422"/>
	<line class="st2" x1="84" y1="129" x2="319" y2="223"/>
	<line class="st2" x1="392" y1="199" x2="26" y2="138"/>
	<line class="st2" x1="111" y1="27" x2="411" y2="291"/>
	<line class="st2" x1="206" y1="400" x2="102" y2="351"/>
	<line class="st2" x1="283" y1="360" x2="13" y2="185"/>
	<line class="st2" x1="154" y1="314" x2="361" y2="86"/>
	<line class="st2" x1="325" y1="346" x2="324" y2="129"/>
	<line class="st2" x1="143" y1="124" x2="24" y2="178"/>
	<line class="st2" x1="296" y1="304" x2="362" y2="431"/>
	<line class="st2" x1="311" y1="413" x2="182" y2="321"/>
	<line class="st2" x1="198" y1="264" x2="111" y2="445"/>
	<line class="st2" x1="36" y1="110" x2="93" y2="378"/>
	<line class="st2" x1="58" y1="191" x2="182" y2="85"/>
	<line class="st2" x1="12" y1="55" x2="156" y2="418"/>
	<line class="st2" x1="182" y1="371" x2="15" y2="124"/>
	<line class="st2" x1="314" y1="334" x2="356" y2="498"/>
	<line class="st2" x1="364" y1="181" x2="331" y2="113"/>
	<line class="st2" x1="55" y1="449" x2="77" y2="411"/>
	<line class="st2" x1="214" y1="239" x2="110" y2="296"/>
	<line class="st2" x1="191" y1="104" x2="199" y2="343"/>
	<line class="st0" x1="149" y1="86" x2="51" y2="409"/>
	<line class="st0" x1="41" y1="78" x2="248" y2="235"/>
	<line class="st0" x1="453" y1="211" x2="337" y2="67"/>
	<line class="st0" x1="2" y1="14" x2="193" y2="393"/>
	<line class="st0" x1="496" y1="130" x2="447" y2="329"/>
	<line class="st0" x1="344" y1="464" x2="16" y2="438"/>
	<line class="st0" x1="8" y1="463" x2="352" y2="223"/>
	<line class="st0" x1="262" y1="135" x2="172" y2="165"/>
	<line class="st0" x1="132" y1="26" x2="291" y2="80"/>
	<line class="st0" x1="272" y1="211" x2="42" y2="95"/>
	<line class="st0" x1="491" y1="485" x2="156" y2="28"/>
	<line class="st0" x1="383" y1="157" x2="344" y2="28"/>
	<line class="st0" x1="141" y1="50" x2="258" y2="141"/>
	<line class="st0" x1="91" y1="411" x2="124" y2="245"/>
	<line class="st0" x1="115" y1="28" x2="170" y2="371"/>
	<line class="st0" x1="477" y1="429" x2="472" y2="203"/>
	<line class="st0" x1="66" y1="55" x2="307" y2="333"/>
	<line class="st0" x1="72" y1="61" x2="118" y2="362"/>
	<line class="st0" x1="187" y1="228" x2="231" y2="429"/>
	<line class="st0" x1="75" y1="309" x2="95" y2="36"/>
	<line class="st0" x1="261" y1="214" x2="462" y2="311"/>
	<line class="st0" x1="407" y1="404" x2="278" y2="68"/>
	<line class="st0" x1="35" y1="318" x2="111" y2="380"/>
	<line class="st0" x1="304" y1="89" x2="268" y2="242"/>
	<line class="st0" x1="344" y1="137" x2="458" y2="398"/>
	<line class="st0" x1="110" y1="493" x2="363" y2="255"/>
	<line class="st0" x1="251" y1="408" x2="485" y2="333"/>
	<line class="st0" x1="459" y1="52" x2="172" y2="294"/>
	<line class="st0" x1="477" y1="243" x2="5" y2="332"/>
	<line class="st0" x1="199" y1="495" x2="402" y2="411"/>
	<line class="st0" x1="473" y1="167" x2="23" y2="194"/>
	<line class="st0" x1="310" y1="470" x2="369" y2="471"/>
	<line class="st0" x1="215" y1="67" x2="322" y2="499"/>
	<line class="st0" x1="308" y1="71" x2="387" y2="305"/>
	<line class="st0" x1="242" y1="32" x2="314" y2="214"/>
	<line class="st0" x1="177" y1="284" x2="273" y2="385"/>
	<line class="st0" x1="187" y1="264" x2="402" y2="386"/>
	<line class="st0" x1="417" y1="25" x2="189" y2="369"/>
	<line class="st0" x1="291" y1="394" x2="35" y2="238"/>
	<line class="st0" x1="382" y1="107" x2="449" y2="116"/>
	<line class="st1" x1="141" y1="343" x2="440" y2="144"/>
	<line class="st1" x1="460" y1="264" x2="319" y2="210"/>
	<line class="st1" x1="293" y1="61" x2="99" y2="39"/>
	<line class="st1" x1="484" y1="359" x2="239" y2="493"/>
	<line class="st1" x1="302" y1="396" x2="352" y2="165"/>
	<line class="st1" x1="109" y1="231" x2="168" y2="134"/>
	<line class="st1" x1="187" y1="214" x2="209" y2="171"/>
	<line class="st1" x1="329" y1="481" x2="174" y2="218"/>
	<line class="st1" x1="155" y1="283" x2="145" y2="351"/>
	<line class="st1" x1="228" y1="59" x2="223" y2="361"/>
	<line class="st1" x1="193" y1="363" x2="429" y2="375"/>
	<line class="st1" x1="377" y1="222" x2="288" y2="302"/>
	<line class="st1" x1="208" y1="250" x2="491" y2="488"/>
	<line class="st1" x1="283" y1="9" x2="287" y2="125"/>
	<line class="st1" x1="165" y1="89" x2="450" y2="228"/>
	<line class="st1" x1="278" y1="325" x2="253" y2="346"/>
	<line class="st1" x1="385" y1="271" x2="76" y2="54"/>
	<line class="st1" x1="426" y1="310" x2="144" y2="273"/>
	<line class="st1" x1="219" y1="112" x2="37" y2="305"/>
	<line class="st1" x1="99" y1="13" x2="215" y2="21"/>
	<line class="st1" x1="475" y1="401" x2="200" y2="323"/>
	<line class="st1" x1="94" y1="130" x2="360" y2="42"/>
	<line class="st1" x1="188" y1="283" x2="119" y2="237"/>
	<line class="st1" x1="322" y1="203" x2="298" y2="492"/>
	<line class="st1" x1="441" y1="66" x2="452" y2="98"/>
	<line class="st1" x1="211" y1="75" x2="228" y2="111"/>
	<line class="st1" x1="251" y1="140" x2="245" y2="243"/>
	<line class="st1" x1="40" y1="146" x2="362" y2="18"/>
	<line class="st1" x1="401" y1="18" x2="122" y2="489"/>
	<line class="st1" x1="304" y1="385" x2="23" y2="164"/>
	<line class="st1" x1="184" y1="2" x2="265" y2="363"/>
	<line class="st1" x1="208" y1="285" x2="279" y2="115"/>
	<line class="st1" x1="134" y1="299" x2="350" y2="440"/>
	<line class="st1" x1="485" y1="497" x2="203" y2="419"/>
	<line class="st1" x1="328" y1="423" x2="334" y2="90"/>
	<line class="st1" x1="14" y1="468" x2="145" y2="481"/>
	<line class="st1" x1="214" y1="332" x2="386" y2="290"/>
	<line class="st1" x1="483" y1="399" x2="4" y2="297"/>
	<line class="st1" x1="441" y1="464" x2="462" y2="396"/>
	<line class="st1" x1="456" y1="182" x2="298" y2="119"/>
	<line class="st1" x1="367" y1="295" x2="426" y2="152"/>
	<line class="st1" x1="65" y1="452" x2="499" y2="134"/>
	<line class="st1" x1="407" y1="20" x2="359" y2="289"/>
	<line class="st1" x1="260" y1="458" x2="265" y2="385"/>
	<line class="st1" x1="245" y1="119" x2="105" y2="160"/>
	<line class="st1" x1="232" y1="56" x2="225" y2="456"/>
	<line class="st1" x1="159" y1="405" x2="445" y2="500"/>
	<line class="st1" x1="496" y1="259" x2="389" y2="149"/>
	<line class="st1" x1="153" y1="327" x2="401" y2="334"/>
	<line class="st1" x1="331" y1="201" x2="460" y2="101"/>
	<line class="st1" x1="254" y1="423" x2="39" y2="446"/>
	<line class="st1" x1="289" y1="297" x2="488" y2="250"/>
	<line class="st1" x1="256" y1="172" x2="0" y2="145"/>
	<line class="st1" x1="145" y1="282" x2="234" y2="159"/>
	<line class="st1" x1="267" y1="147" x2="78" y2="289"/>
	<line class="st1" x1="214" y1="318" x2="273" y2="367"/>
	<line class="st1" x1="388" y1="378" x2="109" y2="54"/>
	<line class="st1" x1="266" y1="372" x2="40" y2="454"/>
	<line class="st1" x1="68" y1="332" x2="116" y2="293"/>
	<line class="st1" x1="315" y1="175" x2="456" y2="433"/>
</g>
<g id="Layer_2">
	<g>
		<path d="M69.9,299.2v-6.1c0-2,0.3-3.9,0.9-5.6c0.6-1.7,1.4-3.2,2.5-4.4c1.1-1.2,2.4-2.1,3.9-2.8c1.5-0.7,3.2-1,5-1
			c2.7,0,4.9,0.6,6.5,1.9c1.7,1.3,2.6,3,2.8,5.1H92V280h9.3v32.7c0,2.3-0.4,4.2-1.2,5.9c-0.8,1.7-2,3.1-3.5,4.2
			c-1.5,1.1-3.3,1.9-5.3,2.5c-2.1,0.5-4.3,0.8-6.8,0.8c-2.4,0-4.5-0.2-6.3-0.6c-1.8-0.4-3.1-0.8-3.9-1.2v-7.8c0.4,0.2,1,0.4,1.7,0.5
			c0.7,0.2,1.5,0.4,2.4,0.6c0.9,0.2,1.8,0.4,2.8,0.5c1,0.1,2,0.2,2.9,0.2c2.4,0,4.3-0.4,5.6-1.3c1.3-0.9,2-2.3,2-4.4v-0.9l0.3-5.8
			h-0.4c-0.3,2.1-1.2,3.8-2.9,5.1c-1.7,1.3-3.8,1.9-6.5,1.9c-1.8,0-3.5-0.3-5-1c-1.5-0.7-2.8-1.6-3.8-2.8c-1.1-1.2-1.9-2.6-2.5-4.4
			C70.2,303.1,69.9,301.2,69.9,299.2z M85.6,304.6c1.8,0,3.3-0.5,4.4-1.6c1.1-1,1.7-2.4,1.7-4.2v-5.4c0-1.7-0.6-3.1-1.7-4.2
			c-1.1-1-2.6-1.6-4.4-1.6c-1.8,0-3.3,0.5-4.4,1.5c-1.1,1-1.6,2.4-1.6,4.2v5.4c0,1.8,0.5,3.2,1.6,4.2
			C82.3,304.1,83.7,304.6,85.6,304.6z"/>
		<path d="M107.9,301.8v-8.4c0-2.1,0.4-4.1,1.2-5.8c0.8-1.7,1.9-3.2,3.3-4.4c1.4-1.2,3.1-2.2,5.1-2.8c2-0.7,4.2-1,6.6-1
			c2.4,0,4.6,0.3,6.5,1c2,0.7,3.6,1.6,5.1,2.9c1.4,1.2,2.5,2.7,3.3,4.4c0.8,1.7,1.2,3.6,1.2,5.7v6.4h-23v1.9c0,2.1,0.6,3.7,1.9,4.9
			c1.2,1.2,2.9,1.8,5.1,1.8c1.6,0,2.9-0.3,4-0.8c1.1-0.5,1.9-1.2,2.2-2.1h9.4c-0.4,1.5-1.1,2.9-2,4.2c-1,1.3-2.1,2.3-3.5,3.2
			c-1.4,0.9-2.9,1.6-4.6,2.1c-1.7,0.5-3.6,0.7-5.5,0.7c-2.4,0-4.6-0.3-6.6-1c-2-0.7-3.7-1.6-5.1-2.8c-1.4-1.2-2.5-2.7-3.3-4.4
			C108.2,305.8,107.9,303.8,107.9,301.8z M117,294.1h13.8v-0.6c0-2.1-0.6-3.7-1.8-4.9c-1.2-1.2-2.9-1.8-5.1-1.8
			c-2.2,0-3.9,0.6-5.1,1.8c-1.2,1.2-1.9,2.8-1.9,4.9V294.1z"/>
		<path d="M146.4,280h9.1v6.1h0.6c0.3-2.2,1.2-3.8,2.8-5c1.6-1.2,3.6-1.7,6.2-1.7c3.6,0,6.5,1.2,8.5,3.5c2,2.3,3.1,5.5,3.1,9.6v22.7
			h-9.6v-21.8c0-1.8-0.5-3.2-1.5-4.2c-1-1-2.4-1.5-4.1-1.5c-1.7,0-3.1,0.5-4.1,1.5c-1,1-1.5,2.4-1.5,4.2v21.8h-9.6V280z"/>
		<path d="M183.3,301.8v-8.4c0-2.1,0.4-4.1,1.2-5.8c0.8-1.7,1.9-3.2,3.3-4.4c1.4-1.2,3.1-2.2,5.1-2.8c2-0.7,4.2-1,6.6-1
			c2.4,0,4.6,0.3,6.5,1c2,0.7,3.6,1.6,5.1,2.9c1.4,1.2,2.5,2.7,3.3,4.4c0.8,1.7,1.2,3.6,1.2,5.7v6.4h-23v1.9c0,2.1,0.6,3.7,1.9,4.9
			c1.2,1.2,2.9,1.8,5.1,1.8c1.6,0,2.9-0.3,4-0.8c1.1-0.5,1.9-1.2,2.2-2.1h9.4c-0.4,1.5-1.1,2.9-2,4.2c-1,1.3-2.1,2.3-3.5,3.2
			c-1.4,0.9-2.9,1.6-4.6,2.1c-1.7,0.5-3.6,0.7-5.5,0.7c-2.4,0-4.6-0.3-6.6-1c-2-0.7-3.7-1.6-5.1-2.8c-1.4-1.2-2.5-2.7-3.3-4.4
			C183.7,305.8,183.3,303.8,183.3,301.8z M192.5,294.1h13.8v-0.6c0-2.1-0.6-3.7-1.8-4.9c-1.2-1.2-2.9-1.8-5.1-1.8
			c-2.2,0-3.9,0.6-5.1,1.8c-1.2,1.2-1.9,2.8-1.9,4.9V294.1z"/>
		<path d="M222.8,315.2V280h9.1v10.3h0.8c0.2-1.5,0.7-3,1.4-4.3c0.7-1.3,1.6-2.5,2.7-3.5c1.1-1,2.4-1.8,3.8-2.3
			c1.4-0.6,3-0.9,4.7-0.9c0.8,0,1.5,0.1,2.3,0.2c0.7,0.1,1.4,0.2,2,0.4c0.6,0.2,1.1,0.3,1.5,0.5c0.4,0.2,0.7,0.3,0.9,0.4l0.5,0.3
			v9.5l-0.5-0.3c-0.2-0.1-0.5-0.2-0.9-0.4c-0.4-0.2-1-0.4-1.6-0.6c-0.6-0.2-1.4-0.4-2.2-0.5c-0.8-0.1-1.7-0.2-2.6-0.2
			c-1.7,0-3.2,0.3-4.7,0.9c-1.5,0.6-2.8,1.5-3.9,2.6c-1.1,1.1-2,2.5-2.7,4.1c-0.7,1.6-1,3.5-1,5.5v13.6H222.8z"/>
		<path d="M256.5,305.6c0-3.3,1.1-5.9,3.2-7.7c2.2-1.8,5.3-3.1,9.5-3.8l8.4-1.3v-1.9c0-1.2-0.5-2.2-1.5-3c-1-0.8-2.3-1.2-3.8-1.2
			c-3.2,0-5.1,1.1-5.7,3.2h-9.3c0.3-1.7,0.8-3.3,1.6-4.6c0.8-1.3,1.9-2.4,3.2-3.3c1.3-0.9,2.8-1.5,4.5-2c1.7-0.4,3.6-0.7,5.6-0.7
			c2.2,0,4.2,0.3,6.1,0.8c1.8,0.6,3.4,1.3,4.7,2.3c1.3,1,2.3,2.2,3,3.6c0.7,1.4,1.1,3,1.1,4.7v24.3h-9.2v-6.4h-0.5
			c-0.5,2.2-1.6,3.9-3.5,5.2c-1.8,1.3-4.2,1.9-7,1.9c-1.5,0-2.9-0.2-4.2-0.7c-1.3-0.5-2.4-1.2-3.4-2c-1-0.9-1.7-2-2.2-3.2
			C256.8,308.6,256.5,307.2,256.5,305.6z M266.1,304.3c0,1.3,0.4,2.3,1.3,3.1c0.9,0.7,2.1,1.1,3.7,1.1c1.8,0,3.4-0.5,4.6-1.4
			c1.2-1,1.9-2.2,1.9-3.7v-4.2l-7.1,1c-1.2,0.2-2.3,0.6-3.1,1.2C266.5,302,266.1,302.9,266.1,304.3z"/>
		<path d="M302.2,280v-10.9h9.6V280h11v8.6h-11V303c0,1.2,0.4,2.1,1.1,2.7c0.7,0.6,1.7,0.8,2.8,0.8c1,0,1.9-0.1,2.7-0.4
			c0.8-0.2,1.6-0.5,2.3-0.8v8.5c-0.7,0.3-1.6,0.6-2.7,0.9c-1.1,0.3-2.3,0.4-3.6,0.4c-3.8,0-6.8-1.1-8.9-3.2
			c-2.2-2.2-3.2-5.1-3.2-8.9v-14.4h-8.7V280H302.2z"/>
		<path d="M350.5,280v26.5h9.5v8.7h-27.9v-8.7h9.5v-17.9h-9.5V280H350.5z M345.1,266.2h1.3c1.5,0,2.6,0.4,3.5,1.2
			c0.9,0.8,1.3,1.9,1.3,3.3c0,1.4-0.4,2.5-1.3,3.3c-0.9,0.8-2.1,1.2-3.6,1.2h-1.2c-1.5,0-2.6-0.4-3.5-1.2c-0.9-0.8-1.3-1.9-1.3-3.3
			c0-1.4,0.4-2.5,1.3-3.3C342.5,266.6,343.6,266.2,345.1,266.2z"/>
		<path d="M359.9,280h9.9l6.8,21.2c0.2,0.6,0.3,1.3,0.5,2c0.1,0.6,0.2,1.3,0.3,2.1c0.1,0.8,0.1,1.6,0.1,2.5h0.9c0-0.6,0-1.3,0.1-2
			c0.1-0.6,0.2-1.3,0.3-2.1c0.1-0.8,0.3-1.6,0.5-2.4l6.6-21.2h9.8l-12.1,35.2h-11.5L359.9,280z"/>
		<path d="M398.8,301.8v-8.4c0-2.1,0.4-4.1,1.2-5.8c0.8-1.7,1.9-3.2,3.3-4.4s3.1-2.2,5.1-2.8c2-0.7,4.2-1,6.6-1c2.4,0,4.6,0.3,6.5,1
			c2,0.7,3.6,1.6,5.1,2.9c1.4,1.2,2.5,2.7,3.3,4.4c0.8,1.7,1.2,3.6,1.2,5.7v6.4h-23v1.9c0,2.1,0.6,3.7,1.9,4.9
			c1.2,1.2,2.9,1.8,5.1,1.8c1.6,0,2.9-0.3,4-0.8s1.9-1.2,2.2-2.1h9.4c-0.4,1.5-1.1,2.9-2,4.2c-1,1.3-2.1,2.3-3.5,3.2
			c-1.4,0.9-2.9,1.6-4.6,2.1c-1.7,0.5-3.6,0.7-5.5,0.7c-2.4,0-4.6-0.3-6.6-1c-2-0.7-3.7-1.6-5.1-2.8s-2.5-2.7-3.3-4.4
			C399.2,305.8,398.8,303.8,398.8,301.8z M407.9,294.1h13.8v-0.6c0-2.1-0.6-3.7-1.8-4.9c-1.2-1.2-2.9-1.8-5.1-1.8s-3.9,0.6-5.1,1.8
			c-1.2,1.2-1.9,2.8-1.9,4.9V294.1z"/>
		<path d="M76.3,369.6c0-3.3,1.1-5.9,3.2-7.7c2.2-1.8,5.3-3.1,9.5-3.8l8.4-1.3v-1.9c0-1.2-0.5-2.2-1.5-3c-1-0.8-2.3-1.2-3.8-1.2
			c-3.2,0-5.1,1.1-5.7,3.2h-9.3c0.3-1.7,0.8-3.3,1.6-4.6c0.8-1.3,1.9-2.4,3.2-3.3c1.3-0.9,2.8-1.5,4.5-2c1.7-0.4,3.6-0.7,5.6-0.7
			c2.2,0,4.2,0.3,6.1,0.8c1.8,0.6,3.4,1.3,4.7,2.3c1.3,1,2.3,2.2,3,3.6c0.7,1.4,1.1,3,1.1,4.7v24.3h-9.2v-6.4h-0.5
			c-0.5,2.2-1.6,3.9-3.5,5.2c-1.8,1.3-4.2,1.9-7,1.9c-1.5,0-2.9-0.2-4.2-0.7c-1.3-0.5-2.4-1.2-3.4-2c-1-0.9-1.7-2-2.2-3.2
			C76.6,372.6,76.3,371.2,76.3,369.6z M85.9,368.3c0,1.3,0.4,2.3,1.3,3.1c0.9,0.7,2.1,1.1,3.7,1.1c1.8,0,3.4-0.5,4.6-1.4
			c1.2-1,1.9-2.2,1.9-3.7v-4.2l-7.1,1c-1.2,0.2-2.3,0.6-3.1,1.2C86.3,366,85.9,366.9,85.9,368.3z"/>
		<path d="M115.6,379.2V344h9.1v10.3h0.8c0.2-1.5,0.7-3,1.4-4.3c0.7-1.3,1.6-2.5,2.7-3.5c1.1-1,2.4-1.8,3.8-2.3
			c1.4-0.6,3-0.9,4.7-0.9c0.8,0,1.5,0.1,2.3,0.2c0.7,0.1,1.4,0.2,2,0.4c0.6,0.2,1.1,0.3,1.5,0.5c0.4,0.2,0.7,0.3,0.9,0.4l0.5,0.3
			v9.5l-0.5-0.3c-0.2-0.1-0.5-0.2-0.9-0.4c-0.4-0.2-1-0.4-1.6-0.6c-0.6-0.2-1.4-0.4-2.2-0.5c-0.8-0.1-1.7-0.2-2.6-0.2
			c-1.7,0-3.2,0.3-4.7,0.9c-1.5,0.6-2.8,1.5-3.9,2.6c-1.1,1.1-2,2.5-2.7,4.1c-0.7,1.6-1,3.5-1,5.5v13.6H115.6z"/>
		<path d="M157.4,344v-10.9h9.6V344h11v8.6h-11V367c0,1.2,0.4,2.1,1.1,2.7c0.7,0.6,1.7,0.8,2.8,0.8c1,0,1.9-0.1,2.7-0.4
			c0.8-0.2,1.6-0.5,2.3-0.8v8.5c-0.7,0.3-1.6,0.6-2.7,0.9c-1.1,0.3-2.3,0.4-3.6,0.4c-3.8,0-6.8-1.1-8.9-3.2
			c-2.2-2.2-3.2-5.1-3.2-8.9v-14.4h-8.7V344H157.4z"/>
		<path d="M205.8,344v26.5h9.5v8.7h-27.9v-8.7h9.5v-17.9h-9.5V344H205.8z M200.3,330.2h1.3c1.4,0,2.6,0.4,3.5,1.2
			c0.9,0.8,1.3,1.9,1.3,3.3c0,1.4-0.4,2.5-1.3,3.3c-0.9,0.8-2.1,1.2-3.6,1.2h-1.2c-1.5,0-2.6-0.4-3.5-1.2c-0.9-0.8-1.3-1.9-1.3-3.3
			c0-1.4,0.4-2.5,1.3-3.3C197.7,330.6,198.9,330.2,200.3,330.2z"/>
		<path d="M216.5,356.8v-8.6h8.7V344c0-1.6,0.3-3.1,0.9-4.4c0.6-1.3,1.4-2.5,2.5-3.5c1.1-1,2.3-1.7,3.8-2.2c1.5-0.5,3.2-0.8,5-0.8
			c1.3,0,2.6,0.1,3.8,0.4c1.2,0.3,2.1,0.5,2.7,0.7v8.1c-0.7-0.2-1.5-0.4-2.4-0.6c-0.9-0.2-1.9-0.3-3.1-0.3c-1.2,0-2.1,0.3-2.7,0.8
			c-0.6,0.5-0.9,1.2-0.9,2.1v3.8h11v8.6h-11v22.4h-9.6v-22.4H216.5z"/>
		<path d="M273.1,344v26.5h9.5v8.7h-27.9v-8.7h9.5v-17.9h-9.5V344H273.1z M267.6,330.2h1.3c1.5,0,2.6,0.4,3.5,1.2
			c0.9,0.8,1.3,1.9,1.3,3.3c0,1.4-0.4,2.5-1.3,3.3c-0.9,0.8-2.1,1.2-3.6,1.2h-1.2c-1.5,0-2.6-0.4-3.5-1.2c-0.9-0.8-1.3-1.9-1.3-3.3
			c0-1.4,0.4-2.5,1.3-3.3C265,330.6,266.2,330.2,267.6,330.2z"/>
		<path d="M304.1,343.4c2.1,0,4.1,0.3,6,0.9c1.8,0.6,3.5,1.5,4.9,2.6c1.4,1.1,2.6,2.5,3.5,4c0.9,1.6,1.6,3.4,1.9,5.3h-9.6
			c-0.3-1.4-1-2.5-2.2-3.3c-1.2-0.8-2.7-1.2-4.4-1.2c-2,0-3.6,0.5-4.8,1.4c-1.2,1-1.7,2.3-1.7,4v9c0,1.7,0.6,3,1.7,4
			c1.2,0.9,2.8,1.4,4.8,1.4c1.7,0,3.2-0.4,4.4-1.2c1.2-0.8,2-1.9,2.3-3.3h9.6c-0.3,2-1,3.7-1.9,5.3c-0.9,1.6-2.1,2.9-3.5,4.1
			c-1.4,1.1-3,2-4.9,2.6c-1.8,0.6-3.8,0.9-6,0.9c-2.4,0-4.6-0.3-6.6-1c-2-0.6-3.7-1.6-5.1-2.8c-1.4-1.2-2.5-2.6-3.3-4.3
			c-0.8-1.7-1.2-3.6-1.2-5.7v-9c0-2.1,0.4-4,1.2-5.7c0.8-1.7,1.9-3.1,3.3-4.3c1.4-1.2,3.1-2.1,5.1-2.8
			C299.5,343.7,301.7,343.4,304.1,343.4z"/>
		<path d="M346.1,344v26.5h9.5v8.7h-27.9v-8.7h9.5v-17.9h-9.5V344H346.1z M340.6,330.2h1.3c1.4,0,2.6,0.4,3.5,1.2
			c0.9,0.8,1.3,1.9,1.3,3.3c0,1.4-0.4,2.5-1.3,3.3c-0.9,0.8-2.1,1.2-3.6,1.2h-1.2c-1.5,0-2.6-0.4-3.5-1.2c-0.9-0.8-1.3-1.9-1.3-3.3
			c0-1.4,0.4-2.5,1.3-3.3C338,330.6,339.2,330.2,340.6,330.2z"/>
		<path d="M361,369.6c0-3.3,1.1-5.9,3.2-7.7c2.2-1.8,5.3-3.1,9.5-3.8l8.4-1.3v-1.9c0-1.2-0.5-2.2-1.5-3c-1-0.8-2.3-1.2-3.8-1.2
			c-3.2,0-5.1,1.1-5.7,3.2h-9.3c0.3-1.7,0.8-3.3,1.6-4.6c0.8-1.3,1.9-2.4,3.2-3.3c1.3-0.9,2.8-1.5,4.5-2c1.7-0.4,3.6-0.7,5.6-0.7
			c2.2,0,4.2,0.3,6.1,0.8c1.8,0.6,3.4,1.3,4.7,2.3c1.3,1,2.3,2.2,3,3.6c0.7,1.4,1.1,3,1.1,4.7v24.3h-9.2v-6.4h-0.5
			c-0.5,2.2-1.6,3.9-3.5,5.2c-1.8,1.3-4.2,1.9-7,1.9c-1.5,0-2.9-0.2-4.2-0.7s-2.4-1.2-3.4-2c-1-0.9-1.7-2-2.2-3.2
			C361.3,372.6,361,371.2,361,369.6z M370.6,368.3c0,1.3,0.4,2.3,1.3,3.1c0.9,0.7,2.1,1.1,3.7,1.1c1.8,0,3.4-0.5,4.6-1.4
			s1.9-2.2,1.9-3.7v-4.2l-7.1,1c-1.2,0.2-2.3,0.6-3.1,1.2C371,366,370.6,366.9,370.6,368.3z"/>
		<path d="M393.1,333.1h19.3V367c0,2.3,1.6,3.5,4.7,3.5c1.2,0,2.4-0.1,3.5-0.4c1.1-0.3,2.1-0.6,3-0.9v8.6c-0.8,0.3-1.9,0.6-3.2,0.9
			c-1.3,0.3-2.7,0.4-4.2,0.4c-2,0-3.8-0.2-5.5-0.7c-1.6-0.5-3-1.2-4.2-2.2c-1.2-1-2-2.2-2.7-3.7c-0.6-1.5-1-3.2-1-5.2v-25.5h-9.7
			V333.1z"/>
		<path d="M57.8,408v26.5h9.5v8.7H39.3v-8.7h9.5v-17.9h-9.5V408H57.8z M52.3,394.2h1.3c1.4,0,2.6,0.4,3.5,1.2
			c0.9,0.8,1.3,1.9,1.3,3.3c0,1.4-0.4,2.5-1.3,3.3c-0.9,0.8-2.1,1.2-3.6,1.2h-1.2c-1.5,0-2.6-0.4-3.5-1.2c-0.9-0.8-1.3-1.9-1.3-3.3
			c0-1.4,0.4-2.5,1.3-3.3C49.7,394.6,50.9,394.2,52.3,394.2z"/>
		<path d="M73.1,408h9.1v6.1h0.6c0.3-2.2,1.2-3.8,2.8-5c1.6-1.2,3.6-1.7,6.2-1.7c3.6,0,6.5,1.2,8.5,3.5c2,2.3,3.1,5.5,3.1,9.6v22.7
			h-9.6v-21.8c0-1.8-0.5-3.2-1.5-4.2c-1-1-2.4-1.5-4.1-1.5c-1.7,0-3.1,0.5-4.1,1.5c-1,1-1.5,2.4-1.5,4.2v21.8h-9.6V408z"/>
		<path d="M118.1,408v-10.9h9.6V408h11v8.6h-11V431c0,1.2,0.4,2.1,1.1,2.7c0.7,0.6,1.7,0.8,2.8,0.8c1,0,1.9-0.1,2.7-0.4
			c0.8-0.2,1.6-0.5,2.3-0.8v8.5c-0.7,0.3-1.6,0.6-2.7,0.9c-1.1,0.3-2.3,0.4-3.6,0.4c-3.8,0-6.8-1.1-8.9-3.2
			c-2.2-2.2-3.2-5.1-3.2-8.9v-14.4h-8.7V408H118.1z"/>
		<path d="M145.6,429.8v-8.4c0-2.1,0.4-4.1,1.2-5.8c0.8-1.7,1.9-3.2,3.3-4.4c1.4-1.2,3.1-2.2,5.1-2.8c2-0.7,4.2-1,6.6-1
			c2.4,0,4.6,0.3,6.5,1c2,0.7,3.6,1.6,5.1,2.9c1.4,1.2,2.5,2.7,3.3,4.4c0.8,1.7,1.2,3.6,1.2,5.7v6.4h-23v1.9c0,2.1,0.6,3.7,1.9,4.9
			c1.2,1.2,2.9,1.8,5.1,1.8c1.6,0,2.9-0.3,4-0.8c1.1-0.5,1.9-1.2,2.2-2.1h9.4c-0.4,1.5-1.1,2.9-2,4.2c-1,1.3-2.1,2.3-3.5,3.2
			c-1.4,0.9-2.9,1.6-4.6,2.1c-1.7,0.5-3.6,0.7-5.5,0.7c-2.4,0-4.6-0.3-6.6-1c-2-0.7-3.7-1.6-5.1-2.8c-1.4-1.2-2.5-2.7-3.3-4.4
			C146,433.8,145.6,431.8,145.6,429.8z M154.8,422.1h13.8v-0.6c0-2.1-0.6-3.7-1.8-4.9c-1.2-1.2-2.9-1.8-5.1-1.8
			c-2.2,0-3.9,0.6-5.1,1.8c-1.2,1.2-1.9,2.8-1.9,4.9V422.1z"/>
		<path d="M178,397.1h19.3V431c0,2.3,1.6,3.5,4.7,3.5c1.2,0,2.4-0.1,3.5-0.4c1.1-0.3,2.1-0.6,3-0.9v8.6c-0.8,0.3-1.9,0.6-3.2,0.9
			c-1.3,0.3-2.7,0.4-4.2,0.4c-2,0-3.8-0.2-5.5-0.7c-1.6-0.5-3-1.2-4.2-2.2c-1.2-1-2-2.2-2.7-3.7c-0.6-1.5-1-3.2-1-5.2v-25.5H178
			V397.1z"/>
		<path d="M209.7,397.1h19.3V431c0,2.3,1.6,3.5,4.7,3.5c1.2,0,2.4-0.1,3.5-0.4c1.1-0.3,2.1-0.6,3-0.9v8.6c-0.8,0.3-1.9,0.6-3.2,0.9
			c-1.3,0.3-2.7,0.4-4.2,0.4c-2,0-3.8-0.2-5.5-0.7c-1.6-0.5-3-1.2-4.2-2.2c-1.2-1-2-2.2-2.7-3.7c-0.6-1.5-1-3.2-1-5.2v-25.5h-9.7
			V397.1z"/>
		<path d="M267.4,408v26.5h9.5v8.7H249v-8.7h9.5v-17.9H249V408H267.4z M262,394.2h1.3c1.4,0,2.6,0.4,3.5,1.2
			c0.9,0.8,1.3,1.9,1.3,3.3c0,1.4-0.4,2.5-1.3,3.3c-0.9,0.8-2.1,1.2-3.6,1.2H262c-1.5,0-2.6-0.4-3.5-1.2c-0.9-0.8-1.3-1.9-1.3-3.3
			c0-1.4,0.4-2.5,1.3-3.3C259.4,394.6,260.6,394.2,262,394.2z"/>
		<path d="M281.8,427.2v-6.1c0-2,0.3-3.9,0.9-5.6c0.6-1.7,1.4-3.2,2.5-4.4c1.1-1.2,2.4-2.1,3.9-2.8c1.5-0.7,3.2-1,5-1
			c2.7,0,4.9,0.6,6.5,1.9c1.7,1.3,2.6,3,2.8,5.1h0.4V408h9.3v32.7c0,2.3-0.4,4.2-1.2,5.9c-0.8,1.7-2,3.1-3.5,4.2
			c-1.5,1.1-3.3,1.9-5.3,2.5c-2.1,0.5-4.3,0.8-6.8,0.8s-4.5-0.2-6.3-0.6c-1.8-0.4-3.1-0.8-3.9-1.2v-7.8c0.4,0.2,1,0.4,1.7,0.5
			c0.7,0.2,1.5,0.4,2.4,0.6c0.9,0.2,1.8,0.4,2.8,0.5c1,0.1,2,0.2,2.9,0.2c2.4,0,4.3-0.4,5.6-1.3c1.3-0.9,2-2.3,2-4.4v-0.9l0.3-5.8
			h-0.4c-0.3,2.1-1.2,3.8-2.9,5.1c-1.7,1.3-3.8,1.9-6.5,1.9c-1.8,0-3.5-0.3-5-1c-1.5-0.7-2.8-1.6-3.8-2.8c-1.1-1.2-1.9-2.6-2.5-4.4
			C282.1,431.1,281.8,429.2,281.8,427.2z M297.4,432.6c1.8,0,3.3-0.5,4.4-1.6c1.1-1,1.7-2.4,1.7-4.2v-5.4c0-1.7-0.6-3.1-1.7-4.2
			c-1.1-1-2.6-1.6-4.4-1.6c-1.8,0-3.3,0.5-4.4,1.5c-1.1,1-1.6,2.4-1.6,4.2v5.4c0,1.8,0.5,3.2,1.6,4.2
			C294.1,432.1,295.6,432.6,297.4,432.6z"/>
		<path d="M319.7,429.8v-8.4c0-2.1,0.4-4.1,1.2-5.8c0.8-1.7,1.9-3.2,3.3-4.4c1.4-1.2,3.1-2.2,5.1-2.8c2-0.7,4.2-1,6.6-1
			c2.4,0,4.6,0.3,6.5,1c2,0.7,3.6,1.6,5.1,2.9c1.4,1.2,2.5,2.7,3.3,4.4c0.8,1.7,1.2,3.6,1.2,5.7v6.4h-23v1.9c0,2.1,0.6,3.7,1.9,4.9
			c1.2,1.2,2.9,1.8,5.1,1.8c1.6,0,2.9-0.3,4-0.8s1.9-1.2,2.2-2.1h9.4c-0.4,1.5-1.1,2.9-2,4.2c-1,1.3-2.1,2.3-3.5,3.2
			c-1.4,0.9-2.9,1.6-4.6,2.1c-1.7,0.5-3.6,0.7-5.5,0.7c-2.4,0-4.6-0.3-6.6-1c-2-0.7-3.7-1.6-5.1-2.8c-1.4-1.2-2.5-2.7-3.3-4.4
			C320.1,433.8,319.7,431.8,319.7,429.8z M328.9,422.1h13.8v-0.6c0-2.1-0.6-3.7-1.8-4.9c-1.2-1.2-2.9-1.8-5.1-1.8
			c-2.2,0-3.9,0.6-5.1,1.8c-1.2,1.2-1.9,2.8-1.9,4.9V422.1z"/>
		<path d="M358.3,408h9.1v6.1h0.6c0.3-2.2,1.2-3.8,2.8-5c1.6-1.2,3.6-1.7,6.2-1.7c3.6,0,6.5,1.2,8.5,3.5c2,2.3,3.1,5.5,3.1,9.6v22.7
			H379v-21.8c0-1.8-0.5-3.2-1.5-4.2c-1-1-2.4-1.5-4.1-1.5c-1.7,0-3.1,0.5-4.1,1.5c-1,1-1.5,2.4-1.5,4.2v21.8h-9.6V408z"/>
		<path d="M411.4,407.4c2.1,0,4.1,0.3,6,0.9c1.8,0.6,3.5,1.5,4.9,2.6s2.6,2.5,3.5,4c0.9,1.6,1.6,3.4,1.9,5.3h-9.6
			c-0.3-1.4-1-2.5-2.2-3.3c-1.2-0.8-2.7-1.2-4.4-1.2c-2,0-3.6,0.5-4.8,1.4s-1.7,2.3-1.7,4v9c0,1.7,0.6,3,1.7,4s2.8,1.4,4.8,1.4
			c1.7,0,3.2-0.4,4.4-1.2c1.2-0.8,2-1.9,2.3-3.3h9.6c-0.3,2-1,3.7-1.9,5.3c-0.9,1.6-2.1,2.9-3.5,4.1c-1.4,1.1-3,2-4.9,2.6
			c-1.8,0.6-3.8,0.9-6,0.9c-2.4,0-4.6-0.3-6.6-1s-3.7-1.6-5.1-2.8c-1.4-1.2-2.5-2.6-3.3-4.3c-0.8-1.7-1.2-3.6-1.2-5.7v-9
			c0-2.1,0.4-4,1.2-5.7c0.8-1.7,1.9-3.1,3.3-4.3c1.4-1.2,3.1-2.1,5.1-2.8C406.8,407.7,409,407.4,411.4,407.4z"/>
		<path d="M433.2,429.8v-8.4c0-2.1,0.4-4.1,1.2-5.8c0.8-1.7,1.9-3.2,3.3-4.4s3.1-2.2,5.1-2.8c2-0.7,4.2-1,6.6-1c2.4,0,4.6,0.3,6.5,1
			c2,0.7,3.6,1.6,5.1,2.9c1.4,1.2,2.5,2.7,3.3,4.4c0.8,1.7,1.2,3.6,1.2,5.7v6.4h-23v1.9c0,2.1,0.6,3.7,1.9,4.9
			c1.2,1.2,2.9,1.8,5.1,1.8c1.6,0,2.9-0.3,4-0.8c1.1-0.5,1.9-1.2,2.2-2.1h9.4c-0.4,1.5-1.1,2.9-2,4.2c-1,1.3-2.1,2.3-3.5,3.2
			c-1.4,0.9-2.9,1.6-4.6,2.1c-1.7,0.5-3.6,0.7-5.5,0.7c-2.4,0-4.6-0.3-6.6-1c-2-0.7-3.7-1.6-5.1-2.8s-2.5-2.7-3.3-4.4
			C433.5,433.8,433.2,431.8,433.2,429.8z M442.3,422.1h13.8v-0.6c0-2.1-0.6-3.7-1.8-4.9c-1.2-1.2-2.9-1.8-5.1-1.8s-3.9,0.6-5.1,1.8
			c-1.2,1.2-1.9,2.8-1.9,4.9V422.1z"/>
	</g>
	<g>
		<path d="M47.5,187.9v-69.6c0-8,1.4-15.2,4.3-21.7s7-12,12.2-16.6c5.3-4.6,11.6-8.1,19.1-10.7c7.4-2.6,15.7-3.8,24.8-3.8
			c8.5,0,16.2,1.2,23.3,3.5c7,2.3,13.2,5.7,18.5,10.1c5.3,4.4,9.5,9.7,12.7,16c3.2,6.2,5.2,13.2,6,20.9h-36
			c-0.6-5.6-3.2-10-7.6-13.2c-4.4-3.2-10-4.8-16.9-4.8c-7.5,0-13.5,1.9-17.9,5.6c-4.4,3.8-6.6,8.7-6.6,14.8v69.6
			c0,6.9,2.2,12.4,6.6,16.4c4.4,4.1,10.4,6.1,17.9,6.1c7.5,0,13.5-2,17.9-6.1c4.4-4.1,6.6-9.6,6.6-16.4V174h-26.9v-30.5h62.9v44.4
			c0,8.2-1.4,15.6-4.3,22.2c-2.9,6.6-7,12.3-12.2,17c-5.3,4.7-11.6,8.4-19.1,10.9c-7.4,2.6-15.7,3.8-24.8,3.8s-17.4-1.3-24.8-3.8
			c-7.4-2.6-13.8-6.2-19.1-10.9c-5.3-4.7-9.4-10.4-12.2-17C49,203.5,47.5,196.1,47.5,187.9z"/>
		<path d="M231.5,66.7h48l45.1,172.8h-36.5l-9.1-39.6h-48.2l-9.1,39.6h-36.2L231.5,66.7z M272.3,171.8l-13.2-56.9
			c-0.5-1.9-0.9-4.2-1.2-6.7c-0.3-2.1-0.7-4.6-1.2-7.6c-0.5-3-0.9-6.3-1.2-10H254c-0.3,2.9-0.7,5.7-1.2,8.4c-0.3,2.6-0.7,5.2-1.1,8
			c-0.4,2.8-0.9,5.4-1.6,7.8l-13,56.9H272.3z"/>
		<path d="M345.4,97.9V66.7h101.3v31.2H414v110.4h32.6v31.2H345.4v-31.2H378V97.9H345.4z"/>
	</g>
</g>
</svg>
