<?xml version="1.0" encoding="utf-8"?>
<!-- Generator: Adobe Illustrator 28.2.0, SVG Export Plug-In . SVG Version: 6.00 Build 0)  -->
<svg version="1.1" id="Layer_1" xmlns="http://www.w3.org/2000/svg" xmlns:xlink="http://www.w3.org/1999/xlink" x="0px" y="0px"
	 viewBox="0 0 500 500" style="enable-background:new 0 0 500 500;" xml:space="preserve">
<g>
	<g>
		<path d="M486,151.2c-2.7,2.3-0.6-8.2-2.6-7.9c-2.1,0.3-5.4,20.7-7,23.2c-2.8,4.6-12.2,30.1-18.9,37.6
			c-14.8,16.7-24.2,43-29.1,49.4c-4.8,6.4-37.3,44.5-48.4,53.2c-21.6,17-38.1,28.9-50,38c-3.2,2.5-17.2,11.9-21,14.2
			c-15.8,9.4-31.3,19-47.2,28.2c-8,4.6-16.4,8.7-24.8,12.6c-11.8,5.4-23.6,10.8-35.7,15.6c-11,4.4-22.3,8.2-33.6,11.7
			c-5.2,1.6-10.8,1.7-16.1,2.6c-8.3,1.3-16.6,3.1-24.9,4c-8,0.8-16.1,1.1-24.1,0.8c-10.5-0.3-9.1-0.7-19.5-2.3
			c-12.6-1.9-23.9-7-33.4-16.2c-12.5-12-21.5-25.8-25.8-42.7c-1.4-5.5-3.7-10.8-4.5-16.4c-2.1-14.5-3.6-29-0.3-43.6
			c1.6-7.1,3.2-14.3,4.3-21.5c2.2-14.7,10.6-28.8,13.9-43.2c1.4-6,4.1-11.7,6.9-17.2c4.3-8.3,8.9-16.6,14.1-24.4
			c5.2-7.7,10.9-15.1,18.5-20.7c8.7-6.3,8.9-13.4,18-19.2c9.6-6.1,11.9-11.1,21.8-16.6c16.1-9,33-16.5,48.3-26.9
			c16.6-11.2,33.6-21.9,50.5-32.7c8.4-5.3,16.8-10.6,25.6-15c7-3.5,14.7-5.9,22.1-8.6c7.6-2.8,15.2-5.7,23.5-6.7
			c9.1-1,18.1-2.1,26.6,2.4c6.3,3.3,13,3,19.6,3.1c12.3,0.2,24.5-0.7,36.8-0.2c18,0.7,10.7,0.8,28.7,2c5.9,0.4,32.8,8.4,45,14
			c9.8,4.4,18.6,9.8,26.1,17.4c7.5,7.5,14.1,15.4,15.8,26.6C486.2,132.2,488.7,148.8,486,151.2z M348.2,314.2
			c-0.1-0.1-0.8-5.4-3.8-3.7c-8.5,4.8-28.1,17.3-29,17.8c-6.7,2.9-12.8,2.1-19.5-1.1c-9.6-4.6-10.9-14.9-7.4-21.8
			c2.2-4.3,3.7-8.9,5-13.6c2.1-8,3.4-16.2,5.5-24.2c1.7-6.2,4.4-12.2,9.9-16.2c1.9-1.4,3.7-2.8,5.6-4.3c8.1-6.5,17.2-10.3,27.6-10.5
			c6.4-0.1,11.3,5.1,10.4,10.8c-0.3,1.9-1.3,4.8-2.5,5.1c-1.7,0.4-9.3-3.8-10.5-3.3c-6.8,2.4-14.4,3.3-18.6,10.4
			c-0.6,0.9-1.5,1.8-2.4,2.3c-4.5,2.3-5.7,6.6-6.7,11c-0.6,2.9,0.2,4,3.3,3.1c5-1.5,10-2.7,15-4.1c3.4-1,8,0.5,9.9,3.4
			c1.9,2.8,1.2,6.1-1.8,7.5c-2.7,1.3-16.9,1.4-19.8,6.3c-1.5,2.5-4.7,4.1-7.2,2.3c-3-2.3-4.7,2.3-6.1,5.9c-0.9,2.4-1.8,4.9-2.8,7.3
			c-2.1,5.6-1.8,8.9,0.9,10.9c3,2.2,8.1,1.6,12.1-1.5c0.4-0.3,14.1-10.9,20.6-15.8c3.1-2.3,6.6-1.7,9.9-0.2
			c2.9,1.4,4.5,14.3,5.3,13.7c6.5-5,21-11.2,28.5-20.4c7.5-9.2,19.3-23.6,36.6-46.2c15.4-20.2,27.2-41.2,33.2-49.4
			c2.6-3.6,9.6-23,13.7-29.5c3.4-5.5,6.1-11.7,7.4-18c6-15.7-5.4-31-8.8-35.1c-6.5-7.7-14.4-14-23.4-18.5c-4.4-2.2-9.2-3.5-13.7-5.4
			c-1.2-0.5-2.1-1.7-3.2-2.4c-1.9-1.2-15.9-6.2-19.6-7.7c-5.5-2.2-13.5-3.6-23.9-4c-6.2-0.3-12.3-0.4-18.5-0.4
			c-2.5,0-5.1,0.6-7.6,0.5c-6.3-0.3-12.5-1.7-18.8,0.1c-2.1,0.6-2.7,1.5-3,3.5c-0.6,3.4,2.1,6.6,1.4,9.9
			c-2.6,12.6-16.3,20.8-19.8,20.8c-3.5,0-5.4-1.8-5.2-2.3c0.9-2.2,9.7-11.4,11.2-13.3c4.1-5.3,3.8-12-1.2-14
			c-4.7-1.9-9.8-3.4-14.8-4.2c-3.5-0.5-7.3,0.2-10.8,1c-5.8,1.2-11.6,2.9-17.3,4.5c-5.2,1.5-9.1,6.2-14.4,6.5
			c-5.1,0.4-3.5-4.8-8.1-3.1c-5.1,1.8-18.2,7.1-22.8,9.8c-13.5,8-26.7,16.6-39.9,25.1c-8.6,5.6-16.9,11.7-25.7,17
			c-8.4,5-17.3,9.1-25.8,13.8c-9.4,5.2-14.6,10.9-24.2,15.8C97.1,173.9,95,184,82,195.4c-13.5,11.8-21.8,27.6-28.8,43.8
			c-7,16-13.7,33.2-16.7,50.3c-0.3,2-0.7,3.9-1.2,5.8c-3.4,12.1-6.2,33.7-2.5,59.6c1.6,11.5,5.6,22.1,10.7,32.3
			c2.6,5.1,6.7,9.5,10.3,14c7.3,9.3,16.9,15.3,28.3,17.2c10.7,1.7,9.7,2.2,20.6,2.4c12.3,0.2,24.5-0.9,36.6-3.4
			c13.8-2.8,28.3-2.5,41-10.1c2.7-1.6,6.1-2,9.1-3c4.2-1.5,8.4-3.1,12.7-4.5c1.5-0.5,3.2-0.6,4.7-1.2c11-5,22-10.1,33.1-15.2
			c2.1-1,4.5-1.4,6.5-2.6c8.9-4.9,17.8-9.7,26.4-15c17.6-11,35.1-22.4,52.5-33.8C326.5,331.2,347.2,315.5,348.2,314.2z"/>
		<path d="M203.4,223.6c-1.9,0.6-4,1-5.8,1.8c-5.8,2.8-11.4,2.6-17-0.7c-3.7-2.2-7.7-3.8-11.1-6.3c-6.3-4.6-8-11.3-7.5-18.8
			c0.5-8.3,2.7-16.2,7.6-23c5.1-7.1,10.4-14.1,15.9-20.9c1.6-2,3.8-3.6,6.1-4.7c6.8-3.2,13.7-6.4,20.8-8.8c5.7-1.9,11,1.6,12.4,7.5
			c1.1,4.4,2,8.9,2.6,13.3c0.4,2.8-0.6,5.1-3.7,6.1c-1,0.3-1.9,1.2-2.8,1.8c-3.6,2.8-7.3,1.5-7.8-3.1c-0.3-2.7,0.1-5.6,0.7-8.3
			c0.8-3.8-0.4-5.8-4-4.7c-4.6,1.5-9.4,3.6-12.9,6.8c-4.4,3.9-7.7,9-11.2,13.7c-3,4.1-5.6,8.4-8.3,12.7c-3.3,5.1-3,12.4,0.3,17.4
			c2.4,3.7,6.4,3.3,9.8,4.7c8.2,3.5,14.4-0.4,20.2-5.5c2.5-2.2,2-3.8-1.2-4.9c-5.4-1.8-7.7-5.2-7.4-10.9c0.2-2.8,4-6,6.9-5.2
			c6,1.6,12,3.2,17.7,5.4c5,2,6.9,7,6.8,12.5c-0.2,8.9-4.7,15.6-9.7,22.3c-5.2,6.8-10.3,13.6-15.4,20.5c-3.1,4.1-6,8.4-9.2,12.4
			c-1.5,2-1,3.1,0.6,4.7c3.8,3.8,7.7,7.7,11,12c3.5,4.6,0.6,9.4-1.8,13.1c-4.5,6.8-9.5,13.4-14.9,19.4c-7.1,7.8-7.2,7.4-1.4,15.8
			c5.2,7.6,11.6,13.2,20.6,15.4c3.3,0.8,4.6,2.7,4.3,5.9c-0.3,3-3.1,5.6-6.2,5.2c-4.1-0.5-8.4-1.3-12.2-2.8
			c-6.5-2.6-12.2-6.6-16.8-12c-3.4-4-6.4-11-10.9,0.6c-4.5,11.6-6.8,12-9.6,12s-4.1-2.2-4.7-3.8c-1.3-4.1-1.9-8-1.9-13
			s10.8-24.7,12.4-30c1.9-6.5,4.6-12.8,6.8-19.2c1.1-3,2.1-6.1,2.8-9.2c0.7-2.9,2.3-4.9,5.1-5.9c3.4-1.2,4.9-3.6,5.8-7
			c0.7-2.7,2.7-5.1,4.1-7.7c1-1.8,10.7-18.9,14.6-25.6C203.8,224.3,203.6,224,203.4,223.6z M180.6,297.7c0.4,0.3,2.9,0,4.3-0.8
			c2.3-1.4,8.2-10.8,9.7-14c0.5-0.9,0.1-2.9-1.1-3.9c-1.2-1-3.3-1.9-3.9-1.3C185.2,282.4,181.3,291.7,180.6,297.7z"/>
		<path d="M275.8,312.8c1.4,0.4,5.3,15.5-2.3,21.1c-11,8.2-23,12.3-36.8,10.2c-6.4-1-13.2-7.9-13.6-14.4c-0.5-7.3-0.1-14.4,2.7-21.5
			c2.5-6.3,6.5-20,5.7-20.8c-0.8-0.8-3.2,2.3-4.4,2.7c-1.4,0.5-3.3,0.9-4.4,0.4c-0.9-0.4-1.4-2.4-1.5-3.8
			c-0.8-7.7,3.7-12.5,9.6-16.2c4.1-2.5,26.9-10.3,32-12.8c4.4-2.2,9.1-3.9,13.9-2.1c2.4,0.9,4.9,2.9,6.2,5.2c1.6,2.8-0.7,8-2.1,8
			c-2.2,0-5.2,0.8-7.8,0.4c-5.4-0.9-23.4,8.8-25,10.9c-1.3,1.9-1.4,6.4-2.2,8.7c-0.2,3,4.5,1.2,6.4,0.6c6.1-1.9,12.5-7.2,17.9-6.8
			c3.3,0.2,5.4,1.8,6,5c0.5,2.7-1.5,5.8-4.7,6.1c-7.9,0.8-17,7.9-22.8,10.9c-1.5,0.8-4.1,0.2-5.9-0.4c-3.4-1.2-4.3,2.9-4.8,6.5
			c-0.7,4.8-1.2,9.6-1.4,14.4c-0.2,4.9,2.6,7.7,7.4,6.9c9.3-1.6,18.5-3.4,24.2-12.6C269.7,316.7,274.3,312.5,275.8,312.8z"/>
		<path d="M243.4,217.9c1.2-4.9,2.4-10,3.6-15.2c1-4.3,3.3-5-4-5c-3.2,0-5.4-1.1-6.6-3.7c-1.3-2.7-1-5.5,1.8-7.2
			c3.2-1.9,6.5-4.1,10.1-4.9c5.8-1.4,9.1-4.7,11.5-9.9c4.3-9.5,9.1-18.9,13.7-28.3c2.5-5.1,9.4-6.1,13-1.7c1.8,2.2,3.4,4.7,4.1,7.4
			c1.5,5.7,2.2,11.6,3.4,17.4c0.4,1.9,1,3.8,2,5.5c2.1,3.5,2,7.5-0.4,10.7c-0.7,0.9-1.5,1.9-1.5,2.9c-0.3,9.5-0.5,19-0.5,28.6
			c0,3.9-5.5,9.8-9.3,9.2c-1.5-0.3-3.7-1.6-4-2.9c-1-4.2-2.3-8.3-1.2-13.1c1.4-5.8,1.4-12,1.7-18c0.1-2.2-1-3.6-3.5-1.8
			c-1.4,1-3,1.7-4.5,2.5c-6.3,3-7,9.6-9.3,15.1c-2,4.9-3.1,10.2-4.7,15.3c-0.9,2.9-6.7,7.9-9.5,7.6c-1.6-0.2-3.8-1.5-4.5-3
			C243.8,223.2,243.9,220.7,243.4,217.9z M273.2,171.3c0,1.8,1.3,3.1,2.8,3.1s6.3-3.8,7-6.2c0.6-2.4-1-3.5-1.3-5.2
			c-0.3-1.6-0.3-4.1-2.4-4.1S273.2,169.5,273.2,171.3z"/>
		<path d="M108.2,328.8c1.1-6.9,2.3-13.8,3.2-20.8c0.4-3-0.1-6.1,0-9.2c0.1-1.5,0.2-3.3,1-4.6c4.5-8.3,4.1-10.4-1.6-17.5
			c-2.9-3.6-6.5-7.3-4.3-13c0.7-1.7,10-9.8,13.8-12.5c5.8-4.2,17.9-9.1,24.2-12.5c7-3.8,15.2-1.4,18.8,5.1c1,1.7,0.9,4.6,0.1,6.5
			c-0.9,2.3-3.3,3.7-6.2,3c-8-2.2-19.5,3.4-24.4,8.3c-1.2,1.1-2.7,3.7-2.9,5.4c-0.5,4.1,0.6,7.9,0.1,11.9c-0.6,5.7,0.8,6.7,6.5,5.1
			c5.1-1.4,10.4-2.5,15.6-3c5.7-0.6,9.4,4.5,7.2,9.4c-0.5,1.2-2.5,2.7-3.5,2.5c-8.3-1.8-15.1,2.4-22.4,5c-6.2,2.1-9.6,5.7-10.1,12.4
			c-0.3,4.2-1.5,8.3-2.2,12.4c-0.5,2.8-0.4,5.4,1.4,8.1c2.6,3.9-0.4,10.9-4.8,12.3c-3.2,1-6.7-0.5-7.8-4
			C109.1,335.8,108.8,332.4,108.2,328.8z"/>
		<path d="M322.6,159c-1.8-1.8,4.6-10.4,6.8-15.6c1.8-4.4,6.3-5.4,9.8-2.6c1,0.8,2.1,2.7,1.9,3.9c-1.5,9.1-3.7,18.2-4.9,27.3
			c-1.8,12.7-8.5,23.6-12.3,35.6c-1.1,3.5-2.8,7-3.3,10.6c-0.5,3.8-3.1,3.6-5.5,4.2c-2.6,0.6-4.2-0.9-5.4-3
			c-2.4-4.3-0.6-8.6,0.8-12.5c3.3-9,7.5-17.7,10.5-26.8c2.2-6.5,5.2-19.7,4.8-20C325.5,159.7,324.4,160.8,322.6,159z"/>
	</g>
</g>
</svg>
