<?xml version="1.0" encoding="utf-8"?>
<!-- Generator: Adobe Illustrator 28.2.0, SVG Export Plug-In . SVG Version: 6.00 Build 0)  -->
<svg version="1.1" id="Layer_1" xmlns="http://www.w3.org/2000/svg" xmlns:xlink="http://www.w3.org/1999/xlink" x="0px" y="0px"
	 viewBox="0 0 500 500" style="enable-background:new 0 0 500 500;" xml:space="preserve">
<path d="M339.5,29.6c12,1.7,25,2.4,37.4,5.5c24.3,6,47.6,14.9,67,31.6c12.9,11.2,24.1,23.7,30.9,39.6c4.8,11,9.8,22,13.8,33.3
	c3.1,8.5,1.8,17.4-2.8,25.3c-5.9,10.2-12.4,20.2-18.8,30.2c-13.2,20.9-30.6,38.4-47.6,56.2c-17.1,17.9-34.2,35.8-51.9,53.1
	c-12.2,11.9-25.3,22.9-38.1,34.2c-12.1,10.7-24.3,21.4-36.7,31.8c-18.9,16-37.8,32-57,47.5c-9.9,8-20.7,14.7-30.8,22.4
	c-14,10.7-28.7,20.3-44.7,27.4c-10.5,4.6-21.2,9.7-33.3,9.6c-4.3,0-8.6,1.1-12.8,1.2c-19.5,0.2-34.6-8-45.9-23.9
	c-7.8-11-12.3-23.3-16.2-35.9c-3.5-11.2-7.5-22.4-10.4-33.8c-1.7-6.7-2.3-13.8-2.5-20.7c-0.4-13.2-1.1-26.5,0-39.7
	c1.4-17.1,4.5-34,9.7-50.6c6.1-19.6,15.4-37.7,24.6-55.7c7.8-15.3,16-30.7,26.1-44.5c13.8-19,28.8-37.3,44.9-54.4
	c14.2-15.2,29.8-29.4,46.3-42.1c12.1-9.4,26.3-16.5,40.3-22.9c14.7-6.7,30.1-12.1,45.6-16.7c10.9-3.2,22.5-4.5,33.9-5.9
	C319.7,30.4,329.1,30.3,339.5,29.6z M323,326.2c20.1-18.5,40.7-36.7,60-56c19.3-19.2,37.4-39.5,55.9-59.5c3.8-4.2,6.8-9.1,10-13.9
	c4.1-6.1,8.1-12.4,12.1-18.6c4.6-7.3,9.8-14.1,10.5-23.5c1.4-17.7-6.3-33-12.2-48.7c-1.4-3.7-3.3-7.5-6-10.4
	c-8.2-8.7-16.2-17.9-25.7-25.1c-8.7-6.7-18.8-12.1-29-16.4c-8.8-3.7-18.6-5.2-28-7.5c-1.3-0.3-2.8,0-4.2,0c0.7,1.4,1,3.3,2.1,4.1
	c6.4,4.6,9.7,11,12.9,18c3,6.7-0.8,14.7-6.2,18.3c-1.6,1.1-4.7,1.7-6,0.8c-1.3-0.9-1.3-3.8-1.7-5.9c-0.6-3.1,0-7-1.7-9.1
	c-3.6-4.6-8-8.9-12.8-12.1c-10.7-7-23.2-9-35.6-8.2c-13.5,0.9-27,3.3-40.3,5.7c-19.4,3.6-37.4,11.3-54.9,19.9
	c-11,5.4-21.3,12.4-31.9,18.7c-13.4,8-25.4,17.6-34,31c-1.2,1.8-2.9,4.4-4.7,4.6c-6.7,0.9-9.3,6.4-13.2,10.4
	c-2.3,2.3-4.2,5.1-6.2,7.8c-8.8,11.9-18.2,23.4-26.2,35.9c-8.5,13.3-15.4,27.7-23.4,41.4c-9.3,15.9-16.8,32.7-20.9,50.6
	c-3.9,16.8-6.8,33.9-8.4,51c-1.2,12.4-0.5,25.2,1.2,37.6c2.9,21.6,9.4,42.5,18,62.5c3.5,8.2,8.2,16.5,14.5,22.6
	c7.8,7.6,18.4,11.5,29.7,10.8c24.5-1.5,46-11.7,66.1-24.9c9.5-6.2,18.5-13.1,27.4-20c18.7-14.6,37.3-29.3,55.8-44.1
	c11.7-9.4,23.3-18.9,34.6-28.7C306.3,340.5,321.2,327.8,323,326.2z"/>
<path d="M156.5,198.1c-0.5,12-2.4,23,1.1,34c1.2,3.9-2.1,10.6-5.8,12.1c-3.3,1.3-7.9-1.3-10.1-5.6c-5.2-10.2-7-21-6-32.4
	c1.2-13.5,1.8-27.1,2.7-40.7c0.3-4.3-0.3-9.2,5.5-10.4c4-0.8,11.3,4.5,12,9.3c1.6,10.8,7.8,18.8,15.3,26.1c3.5,3.4,6.9,7,10.5,10.2
	c1.3,1.1,3.8,2.2,5,1.7c1.2-0.6,1.9-3.1,2.2-4.8c2.6-13.5,4.9-27.1,7.9-40.5c0.9-3.9,3.6-7.4,6-10.8c1-1.4,2.5-3.7,5-2.7
	c2.5,1.1,2.5,4,2.5,5.9c-0.2,5.4-1.3,10.7-1.7,16.1c-1.1,14.4-1.5,28.8-3.5,43.1c-0.7,5-5.2,9.5-8.6,13.8c-0.8,1-4.3,0.9-5.8,0
	c-6.4-3.7-12.7-7.7-18.7-12.1c-4.2-3.1-7.7-7.1-11.6-10.5C159.7,199.1,158.6,198.9,156.5,198.1z"/>
<path d="M307.5,191.4c-1.3,1.3,0.6,14.7,1.2,21.7c0.5,6.4-1.7,11.1-6.2,15.3c-2.9,2.6-5.7,2.7-7.5-0.4c-2.1-3.7-3.9-7.9-4.4-12
	c-2.2-18.2-3-36.6,0.2-54.7c0.6-3.3,3.4-7.2,6.3-8.8c1.6-0.9,6,1.6,8.3,3.6c3.2,2.8,5.9,6.4,8.2,10c5.3,8.4,10.2,17,15.4,25.5
	c3.1,5.1,6.2,4.7,9.4-0.4c3.5-5.6,8.1-10.6,11.1-16.5c2.6-5.1,4.4-11,5.2-16.7c0.7-4.9-1.6-6.3-6.3-5.1c-3.4,0.9-6.6,2.4-9.9,3.3
	c-1.5,0.4-2.4,1.3-4.5-0.2c-2.2-1.5-1.3-4.9-0.4-5.7c4.8-4.1,9.6-9.3,15.4-11.1c10.9-3.4,21.9,8.5,20.4,19.9
	c-2.7,20.4-14.4,35.6-27.9,49.7c-5.6,5.9-11.6,5.5-17.3-0.6c-3.7-3.9-6.7-8.5-10-12.7c-1.1-1.4-4.3-4.8-3.7-4.2
	C310.8,192.1,308.7,190.2,307.5,191.4z"/>
<path d="M211.8,325.5c0.7-2.7,1.4-6.9,3.1-10.6c2.5-5.8,3.1-11.4,1-17.3c-1.4-3.7-0.1-6.9,3-7.9c8.6-2.6,9.1-10.4,11.7-16.7
	c2.1-5.3,3.2-11,4.6-16.5c2.2-8.2,11.8-10.1,18.7-3c3.7,3.8,6.1,8.8,8.7,13.5c1.3,2.2,2.1,4.8,2.8,7.3c1.6,5.6,4.8,8.6,11,8
	c1.8-0.2,3.8,0.5,5.5,1.3c4.5,2.1,4.8,5.9,0.7,8.8c-1.8,1.3-3.9,2.3-6.1,2.9c-3.5,1-4,3.1-3.4,6.4c1.1,5.8,2,11.6,2.8,17.4
	c0.2,1.5,0.3,3.7-0.6,4.5c-2.4,2.4-6.8,5.7-9.8,6.1c-1.6,0.2-3.2-4.3-4.1-7.1c-1.8-5.1-2.4-10.5-3.5-15.8c-0.7-3.6-2.7-5.7-6.6-5
	c-4.1,0.8-8.2,1.4-12.2,2.7c-1.5,0.5-2.7,2.7-3.4,4.3c-2.7,6.4-4.5,13.2-7.9,19.2c-1.7,3.1-5.7,5.7-9.2,7
	C214.5,336.9,211.6,333,211.8,325.5z M249.9,277.5c-1.4-1.4-2.7-5.4-4.6-3.5c-1.9,1.9-5.1,11-3.7,12.4s4.2,1.4,6,0.6
	s2.9-2.4,3.2-3.9C251.1,282,251.3,278.9,249.9,277.5z"/>
<path d="M242.9,161.1c10.4,0,18.2,5.2,23.4,13.1c2.3,3.6,2.4,9.4,1.8,14c-1.1,8.7-4.7,16.6-10.8,23.3c-8.9,9.8-19.7,8.1-24.2-4.6
	c-2.1-5.9-3.4-12.1-4.8-18.2c-1.3-5.7-1.9-6-7.3-3.8c-1.8,0.7-4.8,1.7-6.1,0.5s-0.2-5.3,1.1-6.6c6-5.7,12.4-11,19-16
	C237,161.5,240.2,161.7,242.9,161.1z M256,187.7c0-3.2-3.4-11.1-10.5-11.1c-1.1,0-3.9,3.3-3.8,4.9c0.4,5.5,0.8,11.6,2,17
	c0.2,1,2.8,1.7,3.7,1.6C248.5,200.1,256,190.9,256,187.7z"/>
<path d="M317.8,328c0,1.5-18.7,4-16.4-7.7c2.1-10.9,3-23,3.9-34.1c0.5-5.2,0.6-10.4,1.2-15.6c0.5-4.6,1.2-9.3,2.3-13.8
	c0.4-1.8,1.5-4,2.9-4.8c2.7-1.5,6.1-3.2,8.8-2.7c3.8,0.7,4.2,4.6,3.8,8.2c-1.9,15.2-3.9,30.4-5.8,45.6c-0.6,5-2.9,19.6-3.1,22.5
	C315.1,329.4,317.8,327.3,317.8,328z"/>
<path d="M194.3,317.7c1.2-7.2-2.2-12-9.7-11.9c-7.7,0.1-15.5,0.3-23.2,0.1c-2.9-0.1-5.9-0.8-8.8-1.4c-4.8-1.1-5.9-4.5-3.1-7.9
	c5.9-7.2,12.3-14,18.8-20.6c1.2-1.2,5.7-3.3,6.4-0.7c0.8,2.5-1,3.9-2.1,5.5c-2,2.9-4.2,5.9-3.2,7c1.1,1.2,14.5-3.3,19.9-10.5
	c5.3-7.1,3.8-12-3.5-17.1c-6.7-4.6-13.3-3.2-19.5,0.9c-14.4,9.5-25,22.4-33.8,37.1c-7.9,13.3-6.4,31.1,7.7,42.1
	c5.1,4,10.4,5.7,16,2.7c5.7-3,10.7-7.2,9.2-15.1c-0.7-3.5,0.8-5,4.3-5.6c5.5-0.8,6.1,1.9,6.3,6.5c0.3,7.2,1.1,14.5,2.8,21.5
	c0.6,2.4,1.6,5.9,7.1,5.9C191.6,356.3,192.9,326.7,194.3,317.7z M151.1,331.4c-1.2,0.5-4.3-1.3-5.1-2.8c-1.9-3.5-4.2-9.1-4.2-11.2
	s-0.2-1.3,1.8-1.3c2,0,7.1,2.5,10.2,4.5c1.4,0.9,2.4,4,1.9,5.6C155.1,328.2,153.1,330.5,151.1,331.4z"/>
</svg>
